<?xml version="1.0" encoding="utf-8"?>
<!-- Generator: Adobe Illustrator 17.0.0, SVG Export Plug-In . SVG Version: 6.00 Build 0)  -->
<!DOCTYPE svg PUBLIC "-//W3C//DTD SVG 1.1//EN" "http://www.w3.org/Graphics/SVG/1.1/DTD/svg11.dtd">
<svg version="1.1" id="Layer_1" xmlns="http://www.w3.org/2000/svg" xmlns:xlink="http://www.w3.org/1999/xlink" x="0px" y="0px"
	 width="425.2px" height="425.2px" viewBox="0 0 425.2 425.2" enable-background="new 0 0 425.2 425.2" xml:space="preserve">
<g>
	<g>
		<path fill="#55678F" d="M210.845,84.187c-70.5,0-127.639,57.186-127.639,127.716c0,70.451,57.138,127.66,127.639,127.66
			c70.553,0,127.722-57.209,127.722-127.66C338.567,141.373,281.398,84.187,210.845,84.187z M210.845,333.86
			c-67.339,0-121.935-54.647-121.935-121.957c0-67.381,54.597-122.008,121.935-122.008c67.392,0,122.03,54.628,122.03,122.008
			C332.875,279.213,278.238,333.86,210.845,333.86z"/>
		<g>
			<path fill="#55678F" d="M40.921,208.158l0.176,0.987l-6.433,1.978c-0.474,2.038-0.668,3.922-0.597,5.672
				c0.164,4.107,1.689,7.277,4.59,9.459c2.883,2.173,6.826,3.17,11.765,2.954c4.992-0.208,8.904-1.627,11.766-4.272
				c2.871-2.615,4.199-6.052,4.045-10.294c-0.05-1.421-0.297-2.82-0.729-4.178l-6.62,0.287c-0.853,0.031-1.585,0.063-2.274,0.104
				c-0.68,0.041-1.308,0.082-1.873,0.113c-0.444,0.041-0.68,0.246-0.794,0.629l-0.845,3.087l-1.08,0.104
				c-0.03-2.121-0.082-4.159-0.144-6.094c-0.083-1.997-0.186-3.912-0.31-5.743l1.061-0.164l0.916,2.656
				c0.145,0.39,0.401,0.576,0.813,0.617c0.65-0.041,1.319-0.041,2.029-0.053c0.659-0.03,1.421-0.07,2.203-0.09l7.978-0.32
				l0.173,0.133c0.918,3.314,1.462,6.403,1.587,9.182c0.194,5.805-1.175,10.459-4.117,14c-2.966,3.539-7.206,5.444-12.744,5.68
				c-5.879,0.227-10.521-1.357-13.999-4.775c-3.467-3.408-5.31-8.173-5.558-14.307c-0.073-2.658,0.164-5.437,0.729-8.38l0.195-0.164
				L40.921,208.158z"/>
			<path fill="#55678F" d="M36.085,174.703l32.064-4.754c1.204-0.177,2.038-0.371,2.521-0.639c0.464-0.247,0.874-0.659,1.193-1.224
				l1.134-2.143l1.048,0.157c-0.463,2.107-0.895,4.052-1.275,5.865c-0.381,1.842-0.803,3.994-1.265,6.525l-1.071-0.123l-0.218-2.429
				c-0.029-0.34-0.113-0.597-0.224-0.761c-0.104-0.166-0.31-0.289-0.61-0.351c-0.317-0.062-0.761-0.062-1.315,0
				c-0.567,0.083-1.33,0.185-2.275,0.299l-6.98,0.959l-2.409,11.672l5.993,3.851c0.822,0.514,1.512,0.925,2.007,1.232
				c0.493,0.3,0.895,0.474,1.204,0.537c0.277,0.063,0.495,0.04,0.677-0.113c0.177-0.115,0.331-0.299,0.486-0.606l1.122-2.11
				l1.101,0.164c-0.504,2.284-0.924,4.148-1.214,5.61c-0.309,1.452-0.607,3.067-0.947,4.878l-1.049-0.104l-0.278-2.594
				c-0.063-0.658-0.279-1.154-0.609-1.523c-0.34-0.371-0.924-0.843-1.708-1.379L35.95,177.255L36.085,174.703z M54.354,186.396
				l2.048-9.944l-14.41,1.998L54.354,186.396z"/>
			<path fill="#55678F" d="M75.425,163.545l-1.01-0.35L53.624,132.87l-6.062,13.268l4.673,4.127l-0.247,0.967l-8.049-2.22
				l-0.102-0.237c1.747-3.718,3.417-7.258,4.928-10.614l2.431-5.3c0.967-2.143,1.934-4.292,2.861-6.475l0.987,0.355l20.823,30.278
				l6.25-13.689l-4.735-5.786l0.308-1.091l7.938,4.335l0.091,0.215c-1.944,4.19-3.695,7.926-5.198,11.21l-2.46,5.424
				C77.082,159.735,76.228,161.693,75.425,163.545z"/>
			<path fill="#55678F" d="M62.013,103.303c0.709,0.503,1.12,1.131,1.287,1.888c0.123,0.733-0.052,1.461-0.535,2.13
				c-0.464,0.654-1.04,1.051-1.75,1.183c-0.71,0.13-1.389-0.019-2.049-0.504c-0.751-0.509-1.183-1.127-1.265-1.858
				c-0.124-0.741,0.05-1.451,0.536-2.151c0.453-0.648,1.038-1.05,1.708-1.194C60.602,102.649,61.312,102.829,62.013,103.303z
				 M88.932,122.515c0.822,0.581,1.574,1.096,2.243,1.55c0.668,0.452,1.276,0.869,1.832,1.229c0.34,0.216,0.74,0.145,1.194-0.242
				l2.315-1.779l0.895,0.564c-1.274,1.711-2.448,3.388-3.581,4.977c-1.143,1.658-2.284,3.345-3.427,5.087l-0.937-0.537l0.968-3.003
				c0.155-0.414,0.073-0.764-0.258-1.011c-0.525-0.391-1.142-0.822-1.791-1.287c-0.668-0.473-1.4-1.009-2.234-1.563l-16.55-11.515
				c-0.702-0.479-1.319-0.925-1.876-1.296c-0.577-0.376-1.07-0.726-1.542-1.03c-0.35-0.211-0.701-0.211-1.029,0.02l-2.564,1.956
				l-0.885-0.575c1.245-1.694,2.439-3.356,3.593-4.967c1.142-1.622,2.254-3.308,3.417-5.09l0.936,0.525l-0.988,3.056
				c-0.154,0.373-0.05,0.702,0.246,0.97c0.465,0.343,1.001,0.704,1.556,1.1c0.555,0.401,1.173,0.838,1.832,1.291L88.932,122.515z"/>
			<path fill="#55678F" d="M92.862,76.715c1.75-1.207,3.439-2.385,5.014-3.552c1.596-1.175,3.22-2.399,4.889-3.711l0.723,0.813
				l-1.958,2.552c-0.257,0.309-0.268,0.655-0.041,0.998c0.32,0.49,0.701,1.014,1.07,1.556c0.391,0.57,0.855,1.179,1.339,1.826
				l8.028,10.979c2.8,3.805,5.333,6.022,7.617,6.619c2.306,0.577,4.787-0.107,7.474-2.085c2.718-1.987,4.137-4.205,4.261-6.613
				c0.115-2.431-1.132-5.418-3.747-9.001l-8.215-11.216c-0.45-0.638-0.915-1.246-1.328-1.797c-0.421-0.545-0.812-1.049-1.183-1.497
				c-0.227-0.298-0.556-0.376-0.956-0.236l-2.862,1.035l-0.701-0.886c1.729-1.19,3.213-2.225,4.417-3.121
				c1.162-0.843,2.553-1.913,4.158-3.186l0.73,0.808l-1.966,2.626c-0.226,0.324-0.205,0.668,0.042,1.045
				c0.309,0.438,0.659,0.94,1.041,1.493c0.401,0.54,0.842,1.167,1.349,1.852l7.534,10.288c3.199,4.385,4.694,8.276,4.448,11.677
				c-0.238,3.403-2.275,6.49-6.095,9.292c-3.736,2.747-7.206,3.819-10.346,3.23c-3.17-0.57-6.227-2.867-9.15-6.844l-8.411-11.52
				c-0.504-0.679-0.947-1.29-1.368-1.831c-0.401-0.553-0.762-1.041-1.112-1.464c-0.268-0.334-0.577-0.448-0.947-0.334l-3.087,1.025
				L92.862,76.715z M101.838,62.911c0.515,0.69,0.71,1.4,0.599,2.119c-0.124,0.732-0.505,1.345-1.175,1.834
				c-0.617,0.463-1.274,0.631-1.954,0.529c-0.692-0.107-1.287-0.467-1.752-1.122c-0.515-0.703-0.729-1.405-0.565-2.11
				c0.113-0.711,0.515-1.307,1.194-1.811c0.617-0.447,1.275-0.654,1.925-0.576C100.768,61.856,101.343,62.236,101.838,62.911z
				 M110.218,56.766c0.493,0.69,0.72,1.398,0.596,2.139c-0.114,0.722-0.505,1.319-1.174,1.812c-0.596,0.463-1.265,0.644-1.955,0.525
				c-0.679-0.088-1.255-0.458-1.751-1.113c-0.514-0.705-0.709-1.405-0.576-2.12c0.123-0.705,0.527-1.312,1.204-1.807
				c0.619-0.453,1.267-0.638,1.936-0.567C109.158,55.705,109.733,56.086,110.218,56.766z"/>
			<path fill="#55678F" d="M140.317,54.52l7.265,18.721c0.71,1.821,1.309,3.334,1.814,4.533c0.174,0.423,0.471,0.623,0.904,0.557
				l3.026-0.247l0.473,1.019c-1.943,0.7-3.54,1.297-4.764,1.769c-1.194,0.469-2.77,1.118-4.736,1.941l-0.482-0.969l2.489-1.958
				c0.361-0.289,0.474-0.598,0.341-0.964c-0.443-1.256-1.041-2.804-1.718-4.632l-7.32-18.8c-0.567-1.54-1.101-2.812-1.534-3.825
				c-0.154-0.4-0.441-0.581-0.845-0.578l-3.22,0.228l-0.433-0.987c2.028-0.701,3.593-1.297,4.734-1.74
				c0.712-0.278,1.392-0.567,2.089-0.902l28.762,16.732l-6.929-17.864c-0.565-1.503-1.081-2.779-1.554-3.855
				c-0.144-0.35-0.433-0.507-0.865-0.482l-3.026,0.271l-0.454-1.038c1.979-0.706,3.603-1.307,4.818-1.782
				c1.224-0.473,2.79-1.113,4.664-1.937l0.492,0.969l-2.552,2.044c-0.307,0.257-0.39,0.597-0.246,0.993
				c0.372,1.025,0.846,2.317,1.432,3.859l10.066,25.915l-1.863,0.952L140.317,54.52z"/>
			<path fill="#55678F" d="M190.002,60.744c0.155,0.972,0.3,1.868,0.443,2.67c0.134,0.799,0.267,1.529,0.391,2.173
				c0.072,0.416,0.41,0.659,0.988,0.706l2.893,0.406l0.205,1.049c-2.09,0.3-4.107,0.594-6.064,0.918
				c-1.975,0.324-3.972,0.664-6.022,1.064l-0.277-1.044l2.862-1.4c0.381-0.17,0.564-0.463,0.523-0.866
				c-0.082-0.658-0.205-1.394-0.317-2.206c-0.124-0.809-0.257-1.705-0.401-2.691l-3.193-19.916
				c-0.124-0.837-0.258-1.595-0.372-2.252c-0.112-0.679-0.236-1.293-0.318-1.822c-0.103-0.423-0.351-0.666-0.731-0.735l-3.202-0.459
				l-0.185-1.05c2.079-0.277,4.117-0.581,6.074-0.896c1.934-0.313,3.95-0.684,6.02-1.092l0.268,1.041l-2.892,1.396
				c-0.37,0.173-0.535,0.462-0.515,0.879c0.082,0.572,0.195,1.189,0.268,1.88c0.113,0.679,0.195,1.429,0.36,2.22L190.002,60.744z
				 M185.154,27.991c0.144,0.87-0.021,1.599-0.464,2.207c-0.422,0.622-1.082,1.01-1.903,1.138c-0.763,0.128-1.442,0-2.039-0.417
				c-0.597-0.427-0.947-1.022-1.05-1.827c-0.155-0.881,0-1.625,0.444-2.233c0.42-0.586,1.101-0.952,1.935-1.091
				c0.77-0.12,1.47,0,2.017,0.381C184.69,26.534,185.041,27.155,185.154,27.991z"/>
			<path fill="#55678F" d="M215.52,67.05l-9.778-30.403c-0.35-1.127-0.68-1.904-0.988-2.335c-0.351-0.464-0.843-0.799-1.492-1.03
				l-2.214-0.772v-1.076c1.605,0.133,3.509,0.243,5.734,0.325c2.212,0.072,4.496,0.113,6.865,0.148l0.082,1.073l-2.368,0.581
				c-0.338,0.075-0.586,0.178-0.731,0.338c-0.174,0.149-0.237,0.375-0.237,0.675c-0.03,0.334,0.053,0.773,0.185,1.348
				c0.165,0.545,0.351,1.271,0.638,2.171l7.052,22.681l9.583-22.048c0.381-0.896,0.69-1.616,0.927-2.166
				c0.204-0.546,0.319-1.001,0.328-1.318c0.011-0.306-0.041-0.536-0.215-0.669c-0.113-0.145-0.37-0.262-0.688-0.355l-2.254-0.716
				v-1.148c1.789,0.138,3.612,0.236,5.424,0.302c1.823,0.068,3.562,0.095,5.26,0.095l0.05,1.079l-2.531,0.7
				c-0.565,0.133-1.01,0.401-1.328,0.782c-0.309,0.37-0.761,1.144-1.266,2.286l-13.556,29.335L215.52,67.05z"/>
			<path fill="#55678F" d="M252.68,36.673l5.786,1.571c3.561,0.956,7.307,1.944,11.282,2.943l0.082,0.242l-3.418,7.045l-0.998-0.081
				l0.072-5.939l-10.992-3.001l-3.645,13.201l2.152,0.597c1.647,0.457,3.489,0.931,5.547,1.446c0.392,0.104,0.711-0.019,0.958-0.402
				l1.729-3.01l1.297,0.299c-0.658,2.228-1.142,3.886-1.441,4.957c-0.277,1.035-0.69,2.687-1.247,4.918l-1.347-0.257l0.083-3.53
				c-0.032-0.443-0.206-0.731-0.567-0.839c-2.059-0.592-3.91-1.117-5.599-1.571l-2.141-0.58l-2.409,8.749
				c-0.493,1.776-0.958,3.525-1.398,5.28l11.424,3.084l4.591-5.318l1.122,0.109l-2.82,8.219l-0.205,0.123
				c-4.108-1.158-7.895-2.218-11.375-3.155l-5.651-1.548c-1.933-0.516-3.91-1.032-5.949-1.525l0.195-1.055l3.17-0.096
				c0.444,0,0.7-0.193,0.864-0.562c0.187-0.65,0.392-1.359,0.599-2.146c0.256-0.782,0.495-1.657,0.762-2.631l5.351-19.489
				c0.227-0.808,0.433-1.55,0.597-2.202c0.186-0.665,0.319-1.268,0.452-1.778c0.112-0.448-0.021-0.76-0.349-0.981l-2.676-1.745
				l0.226-1.044C248.83,35.591,250.795,36.153,252.68,36.673z"/>
			<path fill="#55678F" d="M278.33,74.537c-0.493,0.886-0.904,1.678-1.287,2.382c-0.349,0.7-0.679,1.335-0.996,1.921
				c-0.228,0.468-0.187,0.839,0.102,1.157l2.038,2.029l-0.431,0.972c-1.731-0.972-3.44-1.903-5.149-2.845
				c-1.759-0.948-3.561-1.88-5.445-2.821l0.452-0.987l3.098,0.622c0.423,0.088,0.722-0.038,0.938-0.372
				c0.329-0.575,0.699-1.224,1.111-1.94c0.401-0.726,0.834-1.53,1.287-2.409l9.635-17.791c0.381-0.748,0.763-1.427,1.071-2.023
				c0.317-0.596,0.606-1.148,0.841-1.638c0.178-0.391,0.145-0.734-0.112-1.038l-2.234-2.3l0.474-0.957
				c1.831,1.07,3.632,2.063,5.424,3.029c0.338,0.181,0.783,0.414,1.327,0.693c0.578,0.252,1.238,0.586,2.029,0.965
				c0.824,0.397,1.492,0.736,2.039,0.994c0.513,0.272,0.937,0.473,1.266,0.659c3.314,1.78,5.486,3.757,6.484,5.914
				c0.988,2.151,0.824,4.435-0.473,6.843c-1.205,2.173-2.698,3.638-4.581,4.364c-1.894,0.754-4.189,0.862-6.938,0.335
				c0.173,1.899,0.297,3.711,0.36,5.451c0.081,1.72,0.144,3.3,0.218,4.751c0.102,1.451,0.173,2.744,0.277,3.862
				c0.132,1.136,0.287,2.062,0.473,2.803c0.132,0.391,0.257,0.732,0.412,1.046c0.154,0.318,0.331,0.606,0.504,0.869
				c0.227,0.275,0.442,0.524,0.701,0.763c0.255,0.24,0.535,0.508,0.843,0.788l-0.442,1.019c-1.143-0.432-2.029-0.845-2.726-1.224
				c-0.619-0.31-1.125-0.613-1.557-0.881c-0.441-0.273-0.792-0.545-1.122-0.828c-0.288-0.257-0.545-0.557-0.77-0.854
				c-0.206-0.273-0.392-0.624-0.557-0.998c-0.35-0.763-0.596-1.742-0.7-2.904c-0.124-1.172-0.215-2.475-0.247-3.875
				c-0.041-1.421-0.061-2.913-0.081-4.498c-0.011-1.59-0.094-3.161-0.196-4.751c-0.051-0.454-0.073-0.839-0.114-1.123
				c-0.041-0.283-0.124-0.535-0.267-0.756c-0.104-0.211-0.258-0.412-0.473-0.571c-0.238-0.18-0.537-0.372-0.925-0.603l-1.506-0.854
				L278.33,74.537z M283.334,65.274c0.855,0.523,1.648,0.993,2.407,1.384c2.502,1.353,4.645,1.769,6.393,1.353
				c1.739-0.462,3.243-1.842,4.458-4.132c1.224-2.224,1.524-4.138,0.965-5.765c-0.576-1.637-2.036-3.088-4.404-4.348
				c-0.401-0.212-0.865-0.429-1.338-0.654c-0.452-0.215-0.988-0.433-1.544-0.679L283.334,65.274z"/>
			<path fill="#55678F" d="M330.56,80.384c-0.917-1.544-1.924-2.806-3.027-3.751c-1.657-1.417-3.314-2.121-4.971-2.168
				c-1.679-0.016-3.149,0.684-4.375,2.13c-0.69,0.814-1.154,1.678-1.328,2.593c-0.186,0.917-0.186,1.848-0.01,2.816
				c0.185,0.963,0.473,1.95,0.884,2.934c0.432,0.994,0.896,2.007,1.36,3.031c0.554,1.138,1.028,2.23,1.481,3.362
				c0.454,1.11,0.763,2.234,0.906,3.365c0.186,1.133,0.113,2.265-0.154,3.388c-0.287,1.132-0.896,2.223-1.821,3.297
				c-2.142,2.502-4.756,3.597-7.823,3.253c-3.09-0.319-6.166-1.816-9.246-4.452c-1.995-1.703-3.899-3.916-5.712-6.659l0.021-0.247
				l6.423-5.657l0.938,0.588l-3.275,6.499c0.865,1.663,1.986,3.084,3.377,4.267c1.852,1.59,3.664,2.413,5.433,2.481
				c1.742,0.05,3.294-0.686,4.6-2.213c0.712-0.813,1.144-1.673,1.33-2.589c0.204-0.887,0.204-1.809,0-2.73
				c-0.186-0.922-0.505-1.878-0.896-2.855c-0.401-0.989-0.865-1.986-1.349-2.997c-0.535-1.133-1.038-2.258-1.492-3.417
				c-0.441-1.142-0.742-2.291-0.906-3.446c-0.185-1.175-0.06-2.329,0.259-3.538c0.318-1.183,0.977-2.341,1.966-3.495
				c1.955-2.28,4.416-3.243,7.358-2.878c2.965,0.372,5.869,1.75,8.668,4.149c1.955,1.689,3.808,3.676,5.61,5.991v0.242l-6.187,4.966
				l-0.845-0.503L330.56,80.384z"/>
			<path fill="#55678F" d="M329.263,115.738c-0.783,0.628-1.462,1.214-2.089,1.723c-0.619,0.53-1.183,1.009-1.719,1.446
				c-0.289,0.274-0.331,0.679-0.083,1.214l1.101,2.682l-0.813,0.737c-1.307-1.664-2.572-3.259-3.821-4.773
				c-1.265-1.527-2.582-3.082-3.941-4.661l0.764-0.748l2.634,1.735c0.35,0.237,0.7,0.262,1.03,0.026
				c0.535-0.414,1.109-0.865,1.728-1.39c0.67-0.515,1.359-1.092,2.142-1.719l15.614-12.873c0.647-0.54,1.257-1.039,1.772-1.466
				c0.503-0.438,0.997-0.834,1.409-1.212c0.289-0.277,0.392-0.616,0.268-0.997l-1.194-2.97l0.792-0.716
				c1.297,1.67,2.575,3.265,3.808,4.782c1.257,1.514,2.564,3.074,3.954,4.649l-0.751,0.767l-2.656-1.788
				c-0.35-0.23-0.66-0.236-0.999,0c-0.474,0.357-0.957,0.753-1.515,1.194c-0.535,0.429-1.109,0.896-1.728,1.426L329.263,115.738z
				 M355.153,94.924c-0.67,0.556-1.392,0.808-2.153,0.729c-0.752-0.072-1.409-0.426-1.956-1.069
				c-0.493-0.602-0.72-1.265-0.638-1.991c0.073-0.716,0.423-1.323,1.061-1.837c0.669-0.577,1.419-0.82,2.129-0.741
				c0.741,0.097,1.392,0.451,1.915,1.116c0.496,0.606,0.742,1.261,0.691,1.95C356.139,93.776,355.81,94.388,355.153,94.924z"/>
			<path fill="#55678F" d="M337.004,141.199c-0.988-1.76-2.079-3.716-3.272-5.836l0.863-0.619l2.729,2.675
				c0.287,0.31,0.619,0.363,0.988,0.187c1.121-0.578,2.544-1.337,4.262-2.276l21.792-12.032l-4.18-7.633l-6.855,1.298l-0.639-0.792
				l7.535-4.854l0.247,0.041c1.883,3.593,3.726,6.984,5.516,10.226l3.15,5.766c1.751,3.235,3.666,6.611,5.683,10.184l-0.082,0.215
				l-8.43,2.852l-0.618-0.772l5.198-4.654l-4.178-7.642l-21.823,12.008c-1.72,0.957-3.108,1.748-4.2,2.388
				c-0.35,0.205-0.464,0.515-0.37,0.927l0.763,3.745l-0.895,0.537C339.001,144.893,337.942,142.918,337.004,141.199z"/>
			<path fill="#55678F" d="M380.853,154.971l1.689,5.754c1.009,3.541,2.12,7.258,3.303,11.159l-0.133,0.226l-7.792,0.782
				l-0.432-0.906l5.095-3.087l-3.161-10.932l-13.185,3.85l0.628,2.151c0.483,1.637,1.018,3.469,1.658,5.467
				c0.141,0.421,0.41,0.627,0.842,0.637l3.49-0.122l0.4,1.275c-2.254,0.606-3.899,1.07-4.981,1.359
				c-1.039,0.308-2.657,0.803-4.879,1.501l-0.432-1.234l3.025-1.832c0.392-0.247,0.528-0.545,0.424-0.906
				c-0.547-2.06-1.062-3.931-1.566-5.599l-0.596-2.111l-8.718,2.543c-1.771,0.515-3.512,1.051-5.229,1.575l3.284,11.373l6.916,1.112
				l0.506,1.008l-8.503,1.915l-0.186-0.123c-1.142-4.095-2.193-7.885-3.211-11.343l-1.657-5.619
				c-0.525-1.937-1.134-3.883-1.76-5.869l1.006-0.39l1.753,2.635c0.204,0.391,0.535,0.514,0.926,0.433
				c0.616-0.165,1.328-0.361,2.161-0.589c0.782-0.215,1.648-0.482,2.604-0.75l19.394-5.672c0.832-0.236,1.563-0.463,2.222-0.648
				c0.639-0.205,1.225-0.412,1.752-0.556c0.432-0.145,0.648-0.412,0.668-0.813l0.07-3.212l1-0.34
				C379.784,151.132,380.308,153.087,380.853,154.971z"/>
			<path fill="#55678F" d="M387.463,204.091c0.432-1.76,0.617-3.366,0.504-4.817c-0.164-2.161-0.833-3.839-1.987-5.054
				s-2.666-1.73-4.549-1.585c-1.082,0.092-2.008,0.401-2.799,0.905c-0.783,0.514-1.423,1.174-1.979,1.999
				c-0.574,0.803-1.039,1.686-1.44,2.707c-0.423,1.019-0.814,2.048-1.215,3.117c-0.412,1.174-0.865,2.327-1.297,3.417
				c-0.505,1.111-1.069,2.142-1.76,3.057c-0.669,0.916-1.534,1.658-2.532,2.275c-1,0.597-2.183,0.948-3.604,1.071
				c-3.284,0.248-5.899-0.824-7.833-3.234c-1.944-2.416-3.048-5.649-3.335-9.704c-0.205-2.606,0.031-5.528,0.658-8.762l0.206-0.165
				l8.554,0.536l0.258,1.092l-6.937,2.275c-0.567,1.802-0.783,3.612-0.65,5.424c0.197,2.449,0.886,4.303,2.06,5.601
				c1.194,1.275,2.831,1.841,4.837,1.687c1.061-0.082,1.976-0.381,2.748-0.886c0.761-0.514,1.411-1.163,1.944-1.955
				c0.506-0.792,1.001-1.669,1.381-2.667c0.4-0.988,0.791-2.016,1.174-3.079c0.422-1.183,0.873-2.324,1.369-3.436
				c0.514-1.155,1.11-2.182,1.81-3.12c0.701-0.937,1.607-1.72,2.667-2.335c1.079-0.609,2.376-0.969,3.862-1.092
				c3.003-0.246,5.403,0.824,7.234,3.191c1.811,2.336,2.851,5.352,3.161,9.038c0.164,2.594,0.082,5.311-0.32,8.216l-0.174,0.182
				l-7.844-0.842l-0.247-0.968L387.463,204.091z"/>
			<path fill="#55678F" d="M361.554,228.476c-0.989-0.091-1.905-0.144-2.688-0.227c-0.823-0.06-1.553-0.101-2.233-0.164
				c-0.412,0-0.709,0.258-0.927,0.803l-1.102,2.698l-1.091-0.031c0.247-2.11,0.454-4.149,0.639-6.104
				c0.183-1.978,0.329-4.014,0.484-6.104l1.069-0.011l0.65,3.109c0.071,0.422,0.308,0.669,0.7,0.731
				c0.668,0.092,1.4,0.153,2.232,0.227c0.815,0.082,1.721,0.173,2.729,0.256l20.083,1.729c0.854,0.083,1.595,0.145,2.295,0.186
				c0.69,0.051,1.297,0.104,1.833,0.123c0.442,0.021,0.742-0.144,0.906-0.514l1.234-2.964l1.092,0.049
				c-0.268,2.111-0.463,4.139-0.649,6.096c-0.186,1.945-0.34,3.994-0.484,6.105h-1.05l-0.659-3.141
				c-0.051-0.402-0.267-0.627-0.699-0.709c-0.578-0.053-1.205-0.123-1.906-0.186c-0.669-0.082-1.43-0.124-2.233-0.205
				L361.554,228.476z M394.534,231.72c-0.865-0.073-1.555-0.402-2.037-0.989c-0.496-0.565-0.692-1.265-0.619-2.11
				c0.072-0.783,0.4-1.409,0.937-1.873c0.523-0.474,1.236-0.68,2.018-0.619c0.916,0.094,1.584,0.414,2.047,1.009
				c0.473,0.577,0.669,1.289,0.587,2.142c-0.082,0.783-0.391,1.4-0.885,1.865C396.068,231.604,395.388,231.79,394.534,231.72z"/>
		</g>
		<g>
			<path fill="#55678F" d="M160.131,352.576l0.308-1.154c3.686,0.853,7.37,1.669,11.087,2.407l0.144,0.296
				c-1.4,2.959-2.78,6.023-4.044,9.237l-2.523,6.324c-0.926,2.279-1.657,4.135-2.173,5.544c-0.185,0.524-0.061,0.939,0.341,1.226
				l3.695,2.694l-0.351,1.071c-3.17-1.318-5.59-2.325-7.288-2.977c-1.677-0.665-4.126-1.605-7.316-2.818l0.309-1.081l4.653,0.616
				c0.472,0.055,0.833-0.132,1.027-0.552c0.589-1.4,1.216-2.945,1.926-4.655l1.719-4.304c1.381-3.456,2.564-6.565,3.581-9.26
				L160.131,352.576z"/>
			<path fill="#55678F" d="M174.881,394.005c4.736,0.068,8.872-0.935,12.394-3.036c3.561-2.07,6.402-5.353,8.583-9.839l-0.06-0.041
				c-2.615,1.997-5.611,2.694-9.018,2.015c-3.407-0.638-6.032-2.261-7.862-4.91c-1.842-2.603-2.431-5.59-1.761-8.968
				c0.669-3.492,2.52-6.196,5.455-8.065c2.934-1.924,6.217-2.512,9.789-1.81c3.923,0.739,6.846,2.777,8.771,6.132
				c1.934,3.333,2.471,7.245,1.596,11.694c-1.215,6.114-4.375,10.892-9.431,14.348c-5.094,3.451-11.259,4.942-18.455,4.495
				L174.881,394.005L174.881,394.005z M183.219,368.701c-0.659,3.246-0.432,6.005,0.628,8.248c1.079,2.266,2.738,3.602,5.012,4.049
				c2.234,0.419,4.119,0.032,5.559-1.217c1.524-1.226,2.502-3.169,3.016-5.818c0.638-3.187,0.382-6-0.759-8.43
				c-1.145-2.439-2.812-3.88-5.016-4.281c-1.954-0.383-3.706,0.091-5.28,1.432C184.813,364.015,183.753,366.016,183.219,368.701z"/>
			<path fill="#55678F" d="M231.979,379.215l1.236-0.26l-0.391,8.968l-0.186,0.196c-3.808,0.032-7.762,0.091-11.899,0.201
				c-3.817,0.096-7.359,0.187-10.601,0.328l-0.238-2.27c1.71-1.19,3.296-2.275,4.635-3.274c1.398-0.985,2.572-1.915,3.581-2.776
				c0.988-0.866,1.895-1.669,2.656-2.412c0.782-0.761,1.39-1.518,1.915-2.262c0.524-0.743,0.915-1.5,1.173-2.289
				c0.257-0.761,0.391-1.564,0.37-2.407c-0.032-1.687-0.69-3.05-1.957-4.012c-1.265-0.98-2.798-1.445-4.589-1.4
				c-2.121,0.05-4.232,0.675-6.372,1.869l-1.102-1.819c3.439-2.43,6.897-3.693,10.387-3.775c2.614-0.064,4.805,0.533,6.556,1.755
				c1.78,1.226,2.675,2.995,2.707,5.261c0.031,1.423-0.246,2.717-0.855,3.953c-0.616,1.258-1.502,2.448-2.706,3.656
				c-1.174,1.204-2.616,2.394-4.335,3.675c-1.719,1.222-3.706,2.526-5.94,3.93l0.041,0.123l13.845-0.31L231.979,379.215z"/>
			<path fill="#55678F" d="M258.999,345.057c-5.332,2.517-9.077,5.521-11.22,9.018c-2.099,3.524-3.056,7.413-2.881,11.717h0.073
				c1.596-2.927,4.168-4.842,7.701-5.704c3.252-0.811,6.256-0.392,9.015,1.213c2.759,1.609,4.55,4.08,5.383,7.413
				c0.866,3.543,0.351,6.775-1.502,9.729c-1.882,2.932-4.631,4.846-8.255,5.731c-3.994,1.012-7.577,0.383-10.746-1.892
				c-3.212-2.243-5.352-5.64-6.455-10.172c-1.379-5.539-0.648-10.942,2.162-16.181c2.829-5.239,8.121-9.474,15.871-12.707
				L258.999,345.057z M261.768,371.701c-0.792-3.15-2.13-5.539-4.086-7.144c-1.946-1.609-4.077-2.143-6.34-1.582
				c-2.07,0.533-3.585,1.682-4.531,3.479c-0.938,1.787-1.1,3.925-0.473,6.483c0.741,3.064,2.161,5.54,4.221,7.35
				c2.047,1.833,4.25,2.444,6.576,1.865c2.069-0.511,3.49-1.765,4.315-3.752C262.273,376.416,262.376,374.191,261.768,371.701z"/>
		</g>
		<g>
			<path fill="#55678F" d="M253.256,186.356l-0.166,0.061C253.09,186.417,253.359,186.346,253.256,186.356z M285.741,180.613
				c-2.181,1.892-2.964,0.391-2.964,0.391c-1.534-0.947-0.587-8.484-0.587-8.484c-0.505-1.215-4.025-0.369-4.025-0.369
				c-6.196,5.928-14.782,16.993-14.782,16.993c-0.759,0.813-2.284,2.533-2.284,2.533c-2.223-3.048-8.316-4.95-8.316-4.95
				c0.306-0.247,0.36-0.331,0.473-0.371l8.709-7.041c4.692-3.121,1.677-4.262,1.677-4.262c-1.266-0.35-3.067,2.121-3.067,2.121
				c-3.654,1.254-10.304-0.31-10.304-0.31c0-0.854,0.576-1.111,0.576-1.111c2.635-2.214,0.268-3.355,0.268-3.355
				c-5.096-2.544-5.332,4.138-5.332,4.138c-2.059,2.81-9.985,7.906-9.985,7.906c-5.827,4.344-5.147,0-5.147,0
				c5.866-6.362,5.147-8.4,5.147-8.4c0.165-1.976-2.101-2.77-2.101-2.77c-0.926-0.132-3.982,2.349-5.701,3.883
				c-0.814-1.957-3.635-4.634-3.635-4.634c-7.534-5.415-14.41,4.293-14.41,4.293c-2.161,3.099-2.409,4.355-2.409,4.355
				c-0.546,1.275,0.71,2.305,1.183,2.305c0.619-0.091,0.887-0.968,0.887-0.968l0,0c1.039-3.19,4.292-6.421,4.292-6.421
				c0.503-0.567,0.967-0.999,1.379-1.339v2.162c-3.726,2.285-4.796,7.503-4.796,7.503c-1.402,3.449-10.923,10.715-10.923,10.715
				c-6.988,5.291-12.167,9.471-15.491,12.084c3.53-12.969,7.441-28.42,8.647-32.774c17.119-15.502,25.702-34.648,21.153-38.661
				c-6.876-5.631-23.275-2.02-41.266,10.108c-3.048,0.123-11.86,2.962-28.626,27.257l0.132-0.145
				c-6.042,8.934-8.327,16.789-4.951,21.071c5.713,7.371,25.59,1.514,45.25-12.959c-2.953,13.577-8.811,31.312-8.811,31.312
				c-0.35,0.886-0.854,1.75-1.379,2.452c-4.467,3.932-9.172,8.346-11.961,11.126c-16.131,15.104-28.739,36.964-28.739,36.964
				c-8.576,15.77-0.754,20.831-0.754,20.831c8.772,5.859,23.461-14.07,23.461-14.07c16.469-22.571,22.584-43.961,22.584-43.961
				c0.606-1.875,2.111-6.793,3.83-13.074c5.196-4.899,18.26-15.274,18.26-15.274c2.028-1.956,10.458-8.895,10.458-8.895
				c0.197,0.208,0.197,0.073,0.247,0.208c3.367,4.209,9.316,0.822,9.316,0.822c1.389-0.76,2.407-1.555,3.272-2.428
				c2.42,0.268,3.8,3.119,3.8,3.119c3.242,4.498,7.143,0.495,7.143,0.495c6.918-7.278,11.633-9.995,11.633-9.995
				c1.707-1.196,2.851-0.651,3.581,0.083c1.151,1.286,1.019,2.984-0.783,4.261c-2.357,1.275-4.045,2.284-4.045,2.284
				c-2.315,1.421-1.061,1.648-1.061,1.648c10.397,0.534,13.599,3.397,14.637,4.96c-3.314,3.89-17.251,19.887-17.828,25.303
				c0,0-0.06,3.663,0.733,6.72c0,0,1.038,3.284,6.258-1.905c0,0,10.386-10.973,14.339-19.022c0,0,2.727-7.102-0.392-11.447
				c2.213-2.83,10.963-11.693,10.963-11.693c1.019-0.924,1.585,0,1.585,0c2.224,3.068,5.013,3.398,7.71,3.562
				c2.039-0.029,3.366-0.216,3.366-0.216C286.247,179.54,285.741,180.613,285.741,180.613z M184.33,176.391
				c-17.943,14.04-36.172,20.525-40.895,15.151c-5.065-5.764,5.506-23.654,23.623-37.55c17.993-14.062,36.274-20.567,40.99-14.575
				C212.761,145.378,202.242,162.414,184.33,176.391z M170.371,229.012c0,0-6.287,19.353-15.963,34.577
				c0,0-15.061,23.763-19.837,16.254c0,0-1.069-0.989-1.213-3.953c-0.042-3.688,1.955-9.597,7.225-17.494
				c0,0,9.068-16.157,28.235-33.274c0.937-0.916,2.593-1.729,2.593-1.729S173.388,221.684,170.371,229.012z M224.084,182.763
				c-5.746,6.619-7.834,5.383-7.834,5.383c-5.446-1.79,0.67-8.605,0.67-8.605c2.13-1.338,1.955-1.747,1.955-1.747
				c0.176-0.578,0.053-3.79,0-4.613c4.159-0.392,5.321,2.635,5.209,2.111C226.298,179.192,224.084,182.763,224.084,182.763z
				 M254.861,209.247c-4.376,5.623-6.846,8.813-8.781,9.41c-0.76,0.226-1.038-0.083-1.038-0.083
				c-0.978-0.432,0.896-3.066,0.896-3.066c2.542-4.829,9.335-12.436,9.335-12.436c0.514-0.567,0.741,1.029,0.741,1.029
				C256.652,207.477,254.861,209.247,254.861,209.247z M295.85,150.977c0,0-2.224-0.38-2.821,1.071c0,0-1.995,3.715,2.254,6.165
				c0,0,3.934,2.078,5.077-1.534C300.36,156.68,301.079,152.099,295.85,150.977z"/>
		</g>
		<path fill="#55678F" d="M210.804,3.002C95.478,3.002,2.001,96.525,2.001,211.903c0,115.264,93.476,208.856,208.803,208.856
			c115.454,0,208.959-93.592,208.959-208.856C419.764,96.525,326.259,3.002,210.804,3.002z M210.804,412.292
			c-110.571,0-200.28-89.693-200.28-200.389c0-110.785,89.708-200.429,200.28-200.429c110.748,0,200.457,89.644,200.457,200.429
			C411.262,322.599,321.552,412.292,210.804,412.292z"/>
	</g>
</g>
</svg>
