<?xml version="1.0" encoding="utf-8"?>
<!-- Generator: Adobe Illustrator 17.0.0, SVG Export Plug-In . SVG Version: 6.00 Build 0)  -->
<!DOCTYPE svg PUBLIC "-//W3C//DTD SVG 1.1//EN" "http://www.w3.org/Graphics/SVG/1.1/DTD/svg11.dtd">
<svg version="1.1" id="Layer_1" xmlns="http://www.w3.org/2000/svg" xmlns:xlink="http://www.w3.org/1999/xlink" x="0px" y="0px"
	 width="425.2px" height="425.2px" viewBox="0 0 425.2 425.2" enable-background="new 0 0 425.2 425.2" xml:space="preserve">
<g>
	<path fill="#FFFFFF" d="M210.843,415.342c-114.026,0-206.794-92.767-206.794-206.794S96.816,1.755,210.843,1.755
		c114.024,0,206.791,92.767,206.791,206.794S324.867,415.342,210.843,415.342z M210.843,15.45
		c-106.475,0-193.099,86.623-193.099,193.099s86.623,193.099,193.099,193.099c106.473,0,193.096-86.623,193.096-193.099
		S317.316,15.45,210.843,15.45z"/>
	<g>
		<g>
			<path fill-rule="evenodd" clip-rule="evenodd" fill="#FFFFFF" d="M104.573,311.133c0-63.486,0-126.602,0-190.126
				c10.602,0,21.086,0,32.122,0c0,5.568-0.053,10.918,0.015,16.267c0.087,6.436,3.23,9.59,9.64,9.744
				c2.536,0.063,5.077,0.046,7.613,0.007c6.892-0.104,10.098-3.257,10.241-10.267c0.106-5.2,0.022-10.404,0.022-15.905
				c4.199,0,7.931,0,12.511,0c0,5.134-0.022,10.286,0.002,15.438c0.036,7.651,3.02,10.662,10.604,10.744
				c15.845,0.171,16.952-0.93,16.952-16.889c0-2.992,0-5.981,0-9.307c4.069,0,7.772,0,12.195,0c0,5.282-0.048,10.462,0.01,15.643
				c0.082,7.615,3.052,10.484,10.771,10.551c15.609,0.135,16.725-0.974,16.725-16.638c0-3.124,0-6.248,0-9.64
				c4.004,0,7.401,0,11.467,0c0,5.402-0.053,10.595,0.012,15.78c0.092,7.403,3.083,10.387,10.363,10.498
				c15.98,0.241,17-0.762,17-16.705c0-3.129,0-6.258,0-9.633c11.687,0,22.742,0,34.274,0c0,63.347,0,126.693,0,190.44
				C246.588,311.133,175.804,311.133,104.573,311.133z M120.07,174.652c0,40.788,0,81.108,0,121.438c60.866,0,121.361,0,181.942,0
				c0-40.622,0-80.939,0-121.438C241.258,174.652,180.874,174.652,120.07,174.652z"/>
			<path fill-rule="evenodd" clip-rule="evenodd" fill="#FFFFFF" d="M222.893,123.412c0-4.424,0.029-8.845-0.01-13.268
				c-0.024-2.751,1.189-3.838,4.009-3.987c10.621-0.545,10.614-0.627,10.614,9.746c0,6.634-0.125,13.275,0.051,19.905
				c0.092,3.541-0.991,5.139-4.809,5.205c-9.874,0.166-9.871,0.311-9.871-9.541c0-2.685,0-5.373,0-8.059
				C222.884,123.412,222.889,123.412,222.893,123.412z"/>
			<path fill-rule="evenodd" clip-rule="evenodd" fill="#FFFFFF" d="M261.881,123.667c0.002-4.279,0.12-8.563-0.031-12.837
				c-0.13-3.522,1.386-4.653,4.826-4.686c9.768-0.092,9.765-0.215,9.765,9.717c0,6.499-0.164,13.003,0.06,19.492
				c0.14,3.982-1.039,5.718-5.344,5.677c-9.276-0.089-9.276,0.101-9.276-9.279C261.881,129.058,261.881,126.363,261.881,123.667z"/>
			<path fill-rule="evenodd" clip-rule="evenodd" fill="#FFFFFF" d="M183.287,123.672c0.005-4.58,0.06-9.163-0.019-13.738
				c-0.041-2.586,1.046-3.734,3.659-3.734c13.136-0.005,10.575-0.82,10.73,9.92c0.099,6.791-0.111,13.586,0.072,20.37
				c0.092,3.344-1.271,4.486-4.443,4.482c-12.099-0.024-9.799,0.468-9.997-9.247C183.236,129.041,183.28,126.358,183.287,123.672z"
				/>
			<path fill-rule="evenodd" clip-rule="evenodd" fill="#FFFFFF" d="M157.662,123.899c0,4.262-0.108,8.529,0.036,12.786
				c0.104,3.076-1.251,4.375-4.209,4.252c-0.159-0.005-0.316,0.005-0.475,0.005c-11.624,0.01-9.681,0.629-9.802-9.411
				c-0.082-6.945,0.075-13.895-0.051-20.837c-0.06-3.177,1.017-4.566,4.368-4.527c11.61,0.128,10.055-0.774,10.132,9.681
				C157.681,118.53,157.664,121.214,157.662,123.899z"/>
			<path fill-rule="evenodd" clip-rule="evenodd" fill="#FFFFFF" d="M191.883,200.87c0-5.038-0.145-9.45,0.097-13.842
				c0.065-1.123,1.36-2.182,2.088-3.269c0.612,1.046,1.704,2.071,1.753,3.144c0.2,4.411,0.084,8.837,0.084,13.634
				c9.479,0,18.581,0,28.173,0c0-5.366,0-10.674,0-15.939c2.753-1.362,4.313-1.258,4.329,1.895c0.017,3.645-0.207,7.316,0.142,10.93
				c0.121,1.232,1.635,3.303,2.56,3.327c8.994,0.255,17.998,0.154,27.505,0.154c0-5.079-0.118-9.64,0.092-14.182
				c0.046-1.015,1.246-1.974,1.912-2.96c0.701,0.976,1.928,1.917,2.003,2.938c0.255,3.469,0.253,6.979,0.067,10.457
				c-0.159,2.951,1.034,3.881,3.881,3.809c5.865-0.152,11.737-0.149,17.6,0.048c1.225,0.041,2.413,1.205,3.618,1.851
				c-1.241,0.766-2.456,2.143-3.729,2.198c-5.699,0.243-11.417,0.224-17.118,0.06c-2.927-0.084-4.363,0.607-4.269,3.917
				c0.198,7.087,0.06,14.189,0.06,21.835c7.374,0,14.155-0.135,20.924,0.106c1.408,0.053,2.765,1.487,4.144,2.285
				c-1.331,0.685-2.645,1.919-3.995,1.96c-6.795,0.2-13.601,0.094-20.736,0.094c0,9.329,0,18.282,0,28.026
				c6.832,0,13.582-0.13,20.319,0.094c1.492,0.051,2.948,1.319,4.421,2.027c-1.415,0.762-2.811,2.119-4.255,2.167
				c-6.636,0.239-13.29,0.104-20.835,0.104c0,4.332-0.065,8.365,0.019,12.396c0.06,2.929-1.225,3.553-4.074,2.509
				c0-4.727,0-9.44,0-14.524c-10.067,0-19.796,0-29.776,0c-0.407,4.927-0.8,9.879-1.34,14.816c-0.012,0.104-1.733,0.014-3.168,0.014
				c0-4.906,0-9.741,0-14.888c-9.611,0-18.714,0-28.482,0c0,4.18,0.178,8.259-0.113,12.299c-0.082,1.121-1.552,2.141-2.387,3.211
				c-0.509-0.263-1.017-0.521-1.528-0.779c0-4.838,0-9.676,0-14.77c-9.182,0-17.826,0-27.115,0c0,4.072,0.164,8.006-0.106,11.908
				c-0.075,1.109-1.425,2.131-2.191,3.192c-0.634-1.032-1.753-2.032-1.815-3.1c-0.227-3.782-0.089-7.589-0.089-12.285
				c-4.262,0-8.295,0.005-12.33,0c-4.284,0-8.567-0.113-12.841,0.039c-3.054,0.106-4.146-0.95-2.871-4.351c8.989,0,18.142,0,27.66,0
				c0-9.385,0-18.335,0-28.106c-6.482,0-13.063,0-19.644,0c-1.743,0-3.495-0.104-5.231,0.017c-3.153,0.217-3.994-1.126-2.767-4.414
				c9.006,0,18.15,0,27.652,0c0-8.606,0-16.764,0-25.437c-9.083,0-18.203,0-27.284,0c-1.511-2.98-1.391-4.58,2.059-4.566
				c6.658,0.031,13.319,0.019,19.979-0.01c1.704-0.007,3.408-0.15,5.614-0.251c0-4.469-0.193-8.565,0.104-12.622
				c0.106-1.468,1.384-2.849,2.129-4.269c0.651,1.348,1.75,2.657,1.868,4.048c0.28,3.307-0.07,6.668,0.198,9.978
				c0.087,1.068,1.273,2.919,1.991,2.938C175.028,200.943,183.227,200.87,191.883,200.87z M228.633,262.963
				c10.204,0,19.934,0,29.68,0c0-9.341,0-18.297,0-27.274c-10.026,0-19.748,0-29.68,0
				C228.633,244.879,228.633,253.704,228.633,262.963z M196.155,235.619c0,9.225,0,18.159,0,27.32c9.445,0,18.632,0,27.828,0
				c0-9.343,0-18.282,0-27.32C214.577,235.619,205.484,235.619,196.155,235.619z M258.335,205.54c-9.98,0-19.685,0-29.588,0
				c0,8.526,0,16.679,0,24.996c10.045,0,19.765,0,29.588,0C258.335,222.031,258.335,213.868,258.335,205.54z M191.56,263.161
				c0-9.498,0-18.441,0-27.597c-8.951,0-17.593,0-26.399,0c0,9.305,0,18.364,0,27.597C174.1,263.161,182.619,263.161,191.56,263.161
				z M196.299,205.477c0,8.562,0,16.814,0,25.022c9.478,0,18.562,0,27.705,0c0-8.517,0-16.655,0-25.022
				C214.63,205.477,205.556,205.477,196.299,205.477z M191.664,205.518c-9.158,0-17.764,0-26.621,0c0,8.495,0,16.648,0,24.931
				c9.03,0,17.759,0,26.621,0C191.664,221.997,191.664,213.97,191.664,205.518z"/>
		</g>
	</g>
</g>
</svg>
