<?xml version="1.0" encoding="utf-8"?>
<!-- Generator: Adobe Illustrator 17.0.0, SVG Export Plug-In . SVG Version: 6.00 Build 0)  -->
<!DOCTYPE svg PUBLIC "-//W3C//DTD SVG 1.1//EN" "http://www.w3.org/Graphics/SVG/1.1/DTD/svg11.dtd">
<svg version="1.1" id="Layer_1" xmlns="http://www.w3.org/2000/svg" xmlns:xlink="http://www.w3.org/1999/xlink" x="0px" y="0px"
	 width="425.2px" height="425.2px" viewBox="0 0 425.2 425.2" enable-background="new 0 0 425.2 425.2" xml:space="preserve">
<g>
	<path fill="#FFFFFF" d="M212.701,420.863c-114.808,0-208.21-93.403-208.21-208.21S97.893,4.442,212.701,4.442
		c114.805,0,208.208,93.403,208.208,208.21S327.506,420.863,212.701,420.863z M212.701,18.231
		c-107.205,0-194.422,87.217-194.422,194.422s87.217,194.422,194.422,194.422c107.202,0,194.419-87.217,194.419-194.422
		S319.903,18.231,212.701,18.231z"/>
	<g>
		<path fill-rule="evenodd" clip-rule="evenodd" fill="#FFFFFF" d="M260.9,267.446c-10.564-5.211-8.761-13.967-6.937-22.919
			c-14.236,0-27.991,0-41.763,0c-3.159,12.628,2.663,27.168,19.785,28.181c0,2.136,0,4.317,0,6.501c0,2.206,0,4.414,0,6.964
			c-27.696,0-54.886,0-82.528,0c0-4.425,0-8.782,0-13.132c15.873-4.333,22.066-12.986,20.019-28.862c-1.873,0-3.857,0-5.84,0
			c-19.808,0-39.62,0.03-59.429-0.008c-11.57-0.024-16.856-5.195-16.868-16.692c-0.047-41.116-0.039-82.229-0.004-123.345
			c0.011-11.863,5.279-17.072,17.068-17.077c57.559-0.003,115.12-0.003,172.679,0c11.325,0,16.544,5.014,16.561,16.285
			c0.062,41.674,0.063,83.35-0.001,125.026c-0.018,10.624-5.26,15.706-15.834,15.803c-5.046,0.046-10.1,0.183-15.134-0.054
			c-3.303-0.151-4.862,1.045-5.039,4.323c-0.152,2.763-1.056,5.615-0.607,8.257c1.037,6.097,5.991,7.821,10.866,4.145
			c14.712-11.088,24.068-10.681,37.593,1.64c5.108,4.656,10.211,9.313,15.294,13.993c2.475,2.273,4.934,4.57,7.349,6.908
			c12.814,12.378,13.331,32.366,1.195,45.336c-11.709,12.515-30.97,12.728-44.266,0.498c-7.968-7.328-15.931-14.667-23.914-21.978
			c-11.008-10.094-12.41-18.653-5.103-31.738C257.481,272.929,259.088,270.446,260.9,267.446z M106.484,106.155
			c0,34.69,0,68.782,0,102.88c56.515,0,112.646,0,168.771,0c0-34.496,0-68.594,0-102.88
			C218.882,106.155,162.879,106.155,106.484,106.155z M277.046,315.995c4.667,4.207,8.545,7.99,12.722,11.405
			c10.429,8.524,24,8.634,33.901,0.485c10.067-8.292,13.536-22.517,6.762-33.75c-4.077-6.768-10.417-12.17-16.466-19.008
			C306.44,294.164,293.468,306.106,277.046,315.995z M287.545,255.946c-0.353,0.288-0.707,0.584-1.061,0.873
			c-2.786,0.891-5.697,1.524-8.341,2.736c-7.705,3.52-13.257,9.383-17.513,16.622c-7.617,12.959-6.954,17.985,3.887,28.132
			c1.769,1.654,3.272,3.741,5.311,4.904c1.558,0.894,4.246,1.508,5.619,0.759c11.805-6.455,21.538-15.238,28.192-27.09
			c5.932-10.56,6.061-10.826-2.925-18.645C296.852,260.867,291.967,258.672,287.545,255.946z M199.779,226.836
			c-0.128-4.6-4.366-8.685-8.716-8.4c-4.246,0.275-7.788,4.282-7.743,8.739c0.059,5.022,3.504,8.233,8.635,8.042
			C196.591,235.045,199.908,231.495,199.779,226.836z"/>
		<path fill-rule="evenodd" clip-rule="evenodd" fill="#FFFFFF" d="M228.295,173.402c-1.028,4.904-1.628,7.77-2.573,12.275
			c-3.144-9.771-5.792-17.995-8.812-27.392c8.652,2.346,16.53,4.476,25.812,6.986c-3.87,1.689-6.458,2.814-10.35,4.508
			c4.92,4.123,9.315,7.796,13.979,11.699c-2.235,2.424-3.58,3.878-5.882,6.372C236.592,183.253,232.9,178.866,228.295,173.402z"/>
		<path fill-rule="evenodd" clip-rule="evenodd" fill="#FFFFFF" d="M285.301,294.116c-2.257-1.045-3.975-1.443-5.168-2.459
			c-3.537-3.011-7.014-6.132-10.245-9.472c-3.15-3.253-3.446-7.11-0.229-10.422c3.063-3.151,6.739-2.849,9.981-0.035
			c3.509,3.051,7.303,5.965,10.035,9.639c1.475,1.98,1.838,5.672,1.116,8.123C290.228,291.404,287.219,292.599,285.301,294.116z
			 M289.596,286.147c-5.905-4.691-10.464-8.314-15.021-11.933c-0.82,1.153-2.507,3.14-2.324,3.331
			c3.718,3.862,7.558,7.635,11.664,11.077C284.427,289.047,286.591,287.504,289.596,286.147z"/>
		<g>
			<path fill="#FFFFFF" d="M144.873,152.964h-12.681v1.772c0,1.104,0.392,1.909,1.173,2.402c0.779,0.498,2.248,0.751,4.399,0.751
				c1.938,0,4.119-0.283,6.542-0.851v3.76c-2.476,0.506-5.032,0.762-7.673,0.762c-6.919,0-10.374-2.111-10.374-6.337v-7.026
				c0-2.502,0.806-4.293,2.42-5.373c1.616-1.072,4.025-1.613,7.227-1.613c3.016,0,5.264,0.514,6.745,1.535s2.222,2.841,2.222,5.451
				V152.964z M139.257,149.614v-2.828c0-0.619-0.248-1.099-0.745-1.438c-0.499-0.334-1.395-0.501-2.685-0.501
				c-1.429,0-2.39,0.167-2.89,0.501c-0.495,0.339-0.746,0.819-0.746,1.438v2.828H139.257z"/>
			<path fill="#FFFFFF" d="M169.42,147.793v6.42c0,2.666-0.803,4.557-2.403,5.672c-1.603,1.12-4.179,1.675-7.731,1.675
				c-3.742,0-6.326-0.584-7.752-1.756c-1.429-1.169-2.141-3.032-2.141-5.591v-21.316h5.894v10.657
				c0.35-0.889,1.003-1.503,1.959-1.839c0.953-0.334,2.416-0.504,4.379-0.504c1.671,0,3.028,0.137,4.079,0.404
				c1.052,0.275,1.845,0.708,2.383,1.312c0.536,0.609,0.893,1.274,1.069,2.001C169.332,145.652,169.42,146.611,169.42,147.793z
				 M163.524,154.981v-7.226c0-1.266-0.236-2.068-0.706-2.408c-0.47-0.334-1.635-0.501-3.492-0.501
				c-1.671,0-2.761,0.216-3.272,0.644c-0.51,0.436-0.768,1.185-0.768,2.265v7.226c0,1.158,0.251,1.928,0.749,2.321
				c0.497,0.393,1.606,0.587,3.33,0.587c1.722,0,2.848-0.194,3.372-0.587C163.263,156.909,163.524,156.139,163.524,154.981z"/>
			<path fill="#FFFFFF" d="M192.677,141.615l-10.7,27.944h-5.979l3.555-8.564l-7.794-19.38h6.42l4.402,13.808l3.997-13.808H192.677z
				"/>
			<path fill="#FFFFFF" d="M212.419,153.527v2.464c0,0.964-0.18,1.804-0.544,2.502c-0.364,0.703-0.822,1.244-1.374,1.635
				c-0.553,0.396-1.271,0.695-2.16,0.91c-0.889,0.216-1.742,0.355-2.566,0.426c-0.819,0.065-1.782,0.097-2.884,0.097
				c-2.128,0-4.698-0.197-7.713-0.601v-3.921c3.743,0.568,6.341,0.851,7.793,0.851c1.158,0,2.052-0.116,2.688-0.347
				c0.632-0.229,0.946-0.681,0.946-1.349v-1.212c0-0.617-0.173-1.085-0.525-1.392c-0.349-0.307-1.104-0.466-2.259-0.466h-2.544
				c-2.047,0-3.641-0.406-4.787-1.231c-1.142-0.824-1.714-2.023-1.714-3.614v-2.381c0-1.777,0.847-3.003,2.544-3.673
				c1.695-0.676,4.091-1.013,7.186-1.013c1.293,0,3.606,0.124,6.944,0.366v3.754c-4.197-0.323-6.567-0.485-7.106-0.485
				c-1.641,0-2.678,0.113-3.108,0.339c-0.432,0.232-0.645,0.668-0.645,1.314v1.05c0,0.32,0.165,0.622,0.502,0.889
				c0.335,0.269,0.852,0.404,1.554,0.404h2.585C210.025,148.844,212.419,150.406,212.419,153.527z"/>
		</g>
	</g>
</g>
</svg>
