<?xml version="1.0" encoding="utf-8"?>
<!-- Generator: Adobe Illustrator 17.0.0, SVG Export Plug-In . SVG Version: 6.00 Build 0)  -->
<!DOCTYPE svg PUBLIC "-//W3C//DTD SVG 1.1//EN" "http://www.w3.org/Graphics/SVG/1.1/DTD/svg11.dtd">
<svg version="1.1" id="Layer_1" xmlns="http://www.w3.org/2000/svg" xmlns:xlink="http://www.w3.org/1999/xlink" x="0px" y="0px"
	 width="425.2px" height="425.2px" viewBox="0 0 425.2 425.2" enable-background="new 0 0 425.2 425.2" xml:space="preserve">
<g>
	<g>
		<path fill="#FFFFFF" d="M334.109,268.64c0,5.319-1.496,10.249-3.893,14.588l-76.603-85.708l75.773-66.294
			c2.948,4.678,4.723,10.172,4.723,16.11V268.64L334.109,268.64z M212.802,213.082l105.435-92.253
			c-4.327-2.369-9.199-3.821-14.454-3.821H121.822c-5.262,0-10.136,1.453-14.445,3.821L212.802,213.082z M242.197,207.501
			l-24.405,21.368c-1.428,1.244-3.205,1.865-4.989,1.865c-1.785,0-3.563-0.621-4.99-1.865L183.401,207.5l-77.572,86.804
			c4.65,2.917,10.099,4.665,15.992,4.665h181.962c5.892,0,11.344-1.748,15.992-4.665L242.197,207.501z M96.219,131.225
			c-2.947,4.678-4.724,10.172-4.724,16.111v121.305c0,5.319,1.489,10.249,3.895,14.588l76.594-85.723L96.219,131.225z"/>
	</g>
	<path fill="#FFFFFF" d="M212.924,417.625c-114.07,0-206.873-92.803-206.873-206.873S98.854,3.88,212.924,3.88
		s206.873,92.803,206.873,206.873S326.994,417.625,212.924,417.625z M212.924,17.58c-106.516,0-193.173,86.656-193.173,193.173
		s86.656,193.173,193.173,193.173s193.173-86.656,193.173-193.173S319.44,17.58,212.924,17.58z"/>
</g>
</svg>
