<?xml version="1.0" encoding="utf-8"?>
<!-- Generator: Adobe Illustrator 17.0.0, SVG Export Plug-In . SVG Version: 6.00 Build 0)  -->
<!DOCTYPE svg PUBLIC "-//W3C//DTD SVG 1.1//EN" "http://www.w3.org/Graphics/SVG/1.1/DTD/svg11.dtd">
<svg version="1.1" id="Layer_1" xmlns="http://www.w3.org/2000/svg" xmlns:xlink="http://www.w3.org/1999/xlink" x="0px" y="0px"
	 width="425.2px" height="425.2px" viewBox="0 0 425.2 425.2" enable-background="new 0 0 425.2 425.2" xml:space="preserve">
<path fill="#FFFFFF" d="M212.075,419.365c-114.983,0-208.528-93.545-208.528-208.528S97.092,2.31,212.075,2.31
	s208.528,93.545,208.528,208.528S327.057,419.365,212.075,419.365z M212.075,16.12c-107.368,0-194.718,87.349-194.718,194.718
	s87.349,194.718,194.718,194.718s194.718-87.35,194.718-194.718S319.443,16.12,212.075,16.12z"/>
<g>
	<g>
		<path fill-rule="evenodd" clip-rule="evenodd" fill="#FFFFFF" d="M324.545,252.203c-74.838,0-149.205,0-224.032,0
			c0-16.318,0-32.271,0-48.538c5.074,0,9.66,0,14.874,0c0,11.655,0,22.975,0,34.785c64.68,0,128.735,0,193.279,0
			c0-36.367,0-72.432,0-109.078c-44.146,0-87.9,0-131.951,0c-1.481-4.563-2.824-8.701-4.345-13.401c50.709,0,101.246,0,152.175,0
			C324.545,161.216,324.545,206.312,324.545,252.203z"/>
		<path fill-rule="evenodd" clip-rule="evenodd" fill="#FFFFFF" d="M342.316,295.316c-87.079,0-172.663,0-259.522,0
			c5.543-12.329,10.616-24.125,16.3-35.619c0.739-1.495,4.639-1.998,7.074-2.006c41.579-0.117,83.16-0.084,124.739-0.084
			c29.062,0,58.128,0.123,87.187-0.119c5.01-0.041,7.596,1.551,9.559,6.129C332.105,274.01,337.112,284.166,342.316,295.316z
			 M320.447,279.754c-0.721-2.626-1.523-4.691-1.836-6.828c-0.954-6.572-4.615-8.784-11.072-8.003
			c-4.414,0.534-8.939,0.103-13.415,0.103c-60.403,0-120.807-0.027-181.205,0.087c-2.366,0.004-5.789,0.583-6.881,2.165
			c-2.453,3.546-3.744,7.893-5.749,12.475C174.109,279.754,246.938,279.754,320.447,279.754z M220.054,291.555
			c0.665-6.93-2.26-9.15-8.897-8.868c-10.741,0.457-10.76,0.098-11.186,8.868C206.634,291.555,213.293,291.555,220.054,291.555z"/>
		<path fill-rule="evenodd" clip-rule="evenodd" fill="#FFFFFF" d="M84.431,299.772c85.648,0,170.79,0,255.93,0
			c0.405,0.518,0.808,1.035,1.214,1.55c-1.746,1.406-3.386,2.985-5.286,4.129c-0.824,0.495-2.183,0.106-3.304,0.106
			c-80.296,0-160.584,0.005-240.878-0.021C88.474,305.536,83.898,306.672,84.431,299.772z"/>
		<g>
			<path fill="#FFFFFF" d="M157.226,183.308c-3.566,1.284-8.113,2.354-13.64,3.21c-5.53,0.856-10.609,1.284-15.248,1.284
				c-3.852,0-7.326-0.159-10.434-0.481c-3.1-0.321-6.205-0.927-9.305-1.819c-3.103-0.892-5.712-2.049-7.811-3.478
				c-2.104-1.425-3.797-3.353-5.082-5.777c-1.285-2.426-1.926-5.278-1.926-8.56v-28.888c0-3.636,0.75-6.848,2.247-9.631
				c1.497-2.779,3.384-4.955,5.673-6.524c2.279-1.568,5.026-2.871,8.235-3.905c3.209-1.033,6.298-1.713,9.255-2.034
				c2.959-0.32,6.083-0.479,9.363-0.479c9.843,0,19.257,0.747,28.246,2.245v12.625c-8.489-1.996-17.903-2.995-28.246-2.995
				c-12.058,0-18.083,3.495-18.083,10.486v27.926c0,3.566,1.693,6.029,5.082,7.382c3.389,1.357,8.222,2.033,14.501,2.033
				c3.492,0,7.241-0.535,11.234-1.604v-16.157h-11.34v-10.915h27.279V183.308z"/>
		</g>
	</g>
</g>
</svg>
