<?xml version="1.0" encoding="utf-8"?>
<!-- Generator: Adobe Illustrator 17.0.0, SVG Export Plug-In . SVG Version: 6.00 Build 0)  -->
<!DOCTYPE svg PUBLIC "-//W3C//DTD SVG 1.1//EN" "http://www.w3.org/Graphics/SVG/1.1/DTD/svg11.dtd">
<svg version="1.1" id="Layer_1" xmlns="http://www.w3.org/2000/svg" xmlns:xlink="http://www.w3.org/1999/xlink" x="0px" y="0px"
	 width="425.2px" height="425.2px" viewBox="0 0 425.2 425.2" enable-background="new 0 0 425.2 425.2" xml:space="preserve">
<g>
	<path fill="#FFFFFF" d="M212.263,419.396C97.167,419.396,3.53,325.759,3.53,210.663S97.167,1.93,212.263,1.93
		s208.733,93.637,208.733,208.733S327.359,419.396,212.263,419.396z M212.263,15.753c-107.474,0-194.91,87.436-194.91,194.91
		s87.436,194.91,194.91,194.91s194.91-87.436,194.91-194.91S319.737,15.753,212.263,15.753z"/>
	<g>
		<g>
			<g>
				<path fill="#FFFFFF" d="M295.416,98.641l-164.499-0.054c-16.945,0-30.73,13.785-30.73,30.73v193.422h169.923V176.444
					l7.491-4.993l14.201,7.1l14.462-7.231l18.077,9.039v-51.042C324.339,112.979,311.522,99.578,295.416,98.641z M262.878,129.317
					v186.191H107.417V129.317c0-12.958,10.543-23.5,23.5-23.5h142.909C267.136,111.461,262.878,119.903,262.878,129.317z
					 M317.108,168.66l-10.846-5.423l-14.462,7.231l-14.718-7.361l-6.973,4.646v-38.435c0-12.958,10.543-23.5,23.5-23.5
					s23.5,10.543,23.5,23.5L317.108,168.66L317.108,168.66z"/>
				<polygon fill="#FFFFFF" points="207.588,177.066 223.109,161.545 238.63,177.066 243.742,171.953 228.221,156.432 
					243.742,140.912 238.63,135.8 223.109,151.32 207.588,135.8 202.476,140.912 217.996,156.432 202.476,171.953 				"/>
				<polygon fill="#FFFFFF" points="167.967,144.376 162.558,139.567 136.748,168.606 132.117,161.657 126.101,165.67 
					135.931,180.413 				"/>
				<rect x="118.263" y="188.971" fill="#FFFFFF" width="57.846" height="7.231"/>
				<rect x="118.263" y="207.048" fill="#FFFFFF" width="57.846" height="7.231"/>
				<rect x="118.263" y="225.125" fill="#FFFFFF" width="57.846" height="7.231"/>
				<rect x="118.263" y="243.201" fill="#FFFFFF" width="57.846" height="7.231"/>
				<rect x="118.263" y="261.279" fill="#FFFFFF" width="57.846" height="7.231"/>
				<rect x="118.263" y="279.355" fill="#FFFFFF" width="28.923" height="7.231"/>
				<rect x="194.186" y="188.971" fill="#FFFFFF" width="57.846" height="7.231"/>
				<rect x="194.186" y="207.048" fill="#FFFFFF" width="57.846" height="7.231"/>
				<rect x="194.186" y="225.125" fill="#FFFFFF" width="57.846" height="7.231"/>
				<rect x="194.186" y="243.201" fill="#FFFFFF" width="43.385" height="7.231"/>
			</g>
		</g>
	</g>
</g>
</svg>
