<?xml version="1.0" encoding="utf-8"?>
<!-- Generator: Adobe Illustrator 17.0.0, SVG Export Plug-In . SVG Version: 6.00 Build 0)  -->
<!DOCTYPE svg PUBLIC "-//W3C//DTD SVG 1.1//EN" "http://www.w3.org/Graphics/SVG/1.1/DTD/svg11.dtd">
<svg version="1.1" id="Layer_1" xmlns="http://www.w3.org/2000/svg" xmlns:xlink="http://www.w3.org/1999/xlink" x="0px" y="0px"
	 width="425.2px" height="425.2px" viewBox="0 0 425.2 425.2" enable-background="new 0 0 425.2 425.2" xml:space="preserve">
<g>
	<path fill="#FFFFFF" d="M211.697,420.52c-115.356,0-209.205-93.849-209.205-209.205S96.341,2.11,211.697,2.11
		s209.205,93.849,209.205,209.205S327.053,420.52,211.697,420.52z M211.697,15.965c-107.717,0-195.35,87.633-195.35,195.35
		s87.633,195.35,195.35,195.35s195.35-87.633,195.35-195.35S319.414,15.965,211.697,15.965z"/>
	<g>
		<g>
			<path fill-rule="evenodd" clip-rule="evenodd" fill="#FFFFFF" d="M143.608,287.366c-15.324,0-30.545,0-45.934,0
				c0-50.701,0-101.294,0-152.062c15.258,0,30.482,0,45.934,0C143.608,185.876,143.608,236.455,143.608,287.366z"/>
			<path fill-rule="evenodd" clip-rule="evenodd" fill="#FFFFFF" d="M321.074,284.835c-15.215,3.34-30.08,6.604-45.311,9.948
				c-9.931-45.249-19.834-90.366-29.823-135.886c15.099-3.318,30.018-6.596,45.304-9.957
				C301.174,194.18,311.078,239.296,321.074,284.835z"/>
			<path fill-rule="evenodd" clip-rule="evenodd" fill="#FFFFFF" d="M190.086,293.999c-11.017,0-21.854,0-32.828,0
				c0-50.731,0-101.329,0-152.062c10.968,0,21.805,0,32.828,0C190.086,192.565,190.086,243.162,190.086,293.999z"/>
			<path fill-rule="evenodd" clip-rule="evenodd" fill="#FFFFFF" d="M243.037,287.362c-13.078,0-26.065,0-39.295,0
				c0-32.986,0-65.947,0-99.067c13.074,0,26.068,0,39.295,0C243.037,221.246,243.037,254.137,243.037,287.362z"/>
			<path fill-rule="evenodd" clip-rule="evenodd" fill="#FFFFFF" d="M143.753,115.233c-15.563,0-30.713,0-46.135,0
				c0-3.347-0.23-6.608,0.079-9.815c0.215-2.224,2.048-3.372,4.265-3.379c12.505-0.042,25.009-0.057,37.514,0.01
				c2.32,0.013,4.056,1.323,4.224,3.727C143.916,108.844,143.753,111.94,143.753,115.233z"/>
			<path fill-rule="evenodd" clip-rule="evenodd" fill="#FFFFFF" d="M278.623,307.711c15.209-3.337,30.075-6.596,45.295-9.933
				c0.684,3.218,1.523,6.287,1.928,9.407c0.289,2.211-1.03,3.91-3.207,4.404c-12.351,2.785-24.718,5.496-37.093,8.167
				c-2.246,0.482-4.345-0.861-4.96-3.156C279.833,313.782,279.317,310.9,278.623,307.711z"/>
			<path fill-rule="evenodd" clip-rule="evenodd" fill="#FFFFFF" d="M288.394,136.007c-15.18,3.329-30.051,6.593-45.283,9.935
				c-0.684-3.225-1.582-6.367-1.953-9.571c-0.254-2.195,1.222-3.811,3.384-4.294c12.271-2.74,24.558-5.419,36.853-8.052
				c2.332-0.5,4.389,0.752,5.006,3.036C287.163,129.877,287.683,132.761,288.394,136.007z"/>
			<path fill-rule="evenodd" clip-rule="evenodd" fill="#FFFFFF" d="M143.825,307.667c0,2.973,0.067,5.729-0.019,8.476
				c-0.086,2.76-1.624,4.433-4.328,4.445c-12.574,0.059-25.149,0.048-37.722-0.015c-2.494-0.014-4.089-1.6-4.186-4.01
				c-0.118-2.91-0.029-5.828-0.029-8.897C113.04,307.667,128.371,307.667,143.825,307.667z"/>
			<path fill-rule="evenodd" clip-rule="evenodd" fill="#FFFFFF" d="M203.605,168.14c0-3.199-0.157-6.283,0.05-9.342
				c0.17-2.493,1.947-3.727,5.001-3.741c8.53-0.041,17.063-0.023,25.594-0.02c1.635,0.001,3.28-0.065,4.91,0.065
				c2.231,0.18,3.834,1.391,3.978,3.675c0.193,3.063,0.048,6.149,0.048,9.363C229.926,168.14,216.876,168.14,203.605,168.14z"/>
			<path fill-rule="evenodd" clip-rule="evenodd" fill="#FFFFFF" d="M243.175,307.652c0,3.179,0.166,6.266-0.054,9.323
				c-0.161,2.262-1.755,3.583-4.019,3.594c-10.506,0.051-21.012,0.067-31.516-0.018c-2.387-0.023-3.858-1.549-3.982-3.933
				c-0.152-2.914-0.036-5.842-0.036-8.966C216.774,307.652,229.882,307.652,243.175,307.652z"/>
			<path fill-rule="evenodd" clip-rule="evenodd" fill="#FFFFFF" d="M157.175,307.571c11.056,0,21.878,0,32.961,0
				c0,3.237,0.23,6.49-0.082,9.69c-0.2,2.05-1.848,3.308-4.023,3.318c-8.266,0.037-16.535,0.053-24.803-0.014
				c-2.287-0.018-3.819-1.446-3.993-3.649C156.993,313.863,157.175,310.773,157.175,307.571z"/>
			<path fill-rule="evenodd" clip-rule="evenodd" fill="#FFFFFF" d="M190.243,128.371c-11.199,0-22.02,0-33.065,0
				c0-3.206-0.183-6.293,0.061-9.349c0.174-2.206,1.711-3.618,3.999-3.635c8.265-0.065,16.531-0.072,24.795-0.001
				c2.414,0.02,4.065,1.644,4.176,4.06C190.347,122.346,190.243,125.26,190.243,128.371z"/>
			<path fill-rule="evenodd" clip-rule="evenodd" fill="#FFFFFF" d="M97.659,300.666c0-2.207,0-4.23,0-6.402
				c15.338,0,30.536,0,45.955,0c0,2.115,0,4.191,0,6.402C128.333,300.666,113.127,300.666,97.659,300.666z"/>
			<path fill-rule="evenodd" clip-rule="evenodd" fill="#FFFFFF" d="M97.636,128.334c0-2.149,0-4.097,0-6.226
				c15.346,0,30.566,0,45.988,0c0,2.03,0,4.039,0,6.226C128.353,128.334,113.129,128.334,97.636,128.334z"/>
			<path fill-rule="evenodd" clip-rule="evenodd" fill="#FFFFFF" d="M243.104,175.15c0,2.095,0,4.112,0,6.271
				c-13.205,0-26.254,0-39.446,0c0-2.131,0-4.09,0-6.271C216.774,175.15,229.885,175.15,243.104,175.15z"/>
			<path fill-rule="evenodd" clip-rule="evenodd" fill="#FFFFFF" d="M203.728,294.26c13.14,0,26.173,0,39.373,0
				c0,2.152,0,4.176,0,6.372c-13.07,0-26.108,0-39.373,0C203.728,298.558,203.728,296.487,203.728,294.26z"/>
		</g>
	</g>
</g>
</svg>
