<?xml version="1.0" encoding="utf-8"?>
<!-- Generator: Adobe Illustrator 17.0.0, SVG Export Plug-In . SVG Version: 6.00 Build 0)  -->
<!DOCTYPE svg PUBLIC "-//W3C//DTD SVG 1.1//EN" "http://www.w3.org/Graphics/SVG/1.1/DTD/svg11.dtd">
<svg version="1.1" id="Layer_1" xmlns="http://www.w3.org/2000/svg" xmlns:xlink="http://www.w3.org/1999/xlink" x="0px" y="0px"
	 width="425.2px" height="425.2px" viewBox="0 0 425.2 425.2" enable-background="new 0 0 425.2 425.2" xml:space="preserve">
<g>
	<path fill="#FFFFFF" d="M212.197,420.645C97.214,420.645,3.668,327.1,3.668,212.116S97.214,3.587,212.197,3.587
		s208.529,93.546,208.529,208.529S327.181,420.645,212.197,420.645z M212.197,17.397c-107.369,0-194.719,87.35-194.719,194.719
		s87.35,194.719,194.719,194.719s194.719-87.35,194.719-194.719S319.566,17.397,212.197,17.397z"/>
	<g>
		<circle fill="#FFFFFF" cx="323.161" cy="171.207" r="31.402"/>
		<circle fill="#FFFFFF" cx="103.021" cy="171.207" r="31.402"/>
		<path fill="#FFFFFF" d="M323.161,223.953c-14.168,0-27.116,5.186-37.074,13.754c11.296,12.381,19.113,27.167,22.964,43.163h71.026
			C380.077,249.436,354.595,223.953,323.161,223.953z"/>
		<path fill="#FFFFFF" d="M213.09,226.79c-42.731,0-77.371,34.64-77.371,77.371h154.742
			C290.461,261.43,255.821,226.79,213.09,226.79z"/>
		<path fill="#FFFFFF" d="M103.021,223.953c-31.434,0-56.917,25.482-56.917,56.917h71.026c3.851-15.996,11.669-30.782,22.964-43.163
			C130.137,229.14,117.189,223.953,103.021,223.953z"/>
		<circle fill="#FFFFFF" cx="213.09" cy="162.759" r="42.687"/>
	</g>
</g>
</svg>
