<?xml version="1.0" encoding="utf-8"?>
<!-- Generator: Adobe Illustrator 17.0.0, SVG Export Plug-In . SVG Version: 6.00 Build 0)  -->
<!DOCTYPE svg PUBLIC "-//W3C//DTD SVG 1.1//EN" "http://www.w3.org/Graphics/SVG/1.1/DTD/svg11.dtd">
<svg version="1.1" id="Layer_1" xmlns="http://www.w3.org/2000/svg" xmlns:xlink="http://www.w3.org/1999/xlink" x="0px" y="0px"
	 width="425.2px" height="425.2px" viewBox="0 0 425.2 425.2" enable-background="new 0 0 425.2 425.2" xml:space="preserve">
<g>
	<path fill="#FFFFFF" d="M212.28,419.145c-115.096,0-208.733-93.637-208.733-208.733S97.184,1.679,212.28,1.679
		s208.733,93.637,208.733,208.733S327.376,419.145,212.28,419.145z M212.28,15.502c-107.474,0-194.91,87.436-194.91,194.91
		s87.436,194.91,194.91,194.91s194.91-87.436,194.91-194.91S319.754,15.502,212.28,15.502z"/>
	<g>
		<g>
			<path fill-rule="evenodd" clip-rule="evenodd" fill="#FFFFFF" d="M296.321,219.685c0-2.374,0-4.206,0-6.04
				c0-19.176,0.108-38.353-0.077-57.527c-0.045-4.619,1.302-6.62,6.151-6.22c4.252,0.351,8.569,0.292,12.834,0.015
				c4.552-0.295,5.957,1.631,5.928,6.014c-0.138,22.773-0.066,45.544-0.066,68.317c0,4.794-0.168,9.596,0.051,14.38
				c0.195,4.251-1.552,5.736-5.747,5.693c-15.066-0.157-30.133-0.063-45.202-0.051c-1.338,0.001-2.678,0.123-4.536,0.215
				c-0.108,2.191-0.286,4.173-0.288,6.154c-0.015,17.978-0.019,35.954,0.03,53.932c0.014,4.852-1.022,9.133-5.244,12.168
				c-7.359,5.298-17.432,1.407-19.112-7.505c-0.376-2.003-0.448-4.085-0.449-6.132c-0.018-25.51-0.009-51.021,0.017-76.531
				c0.005-6.767,0.133-6.874,6.894-6.879c14.21-0.009,28.42-0.001,42.632-0.003C291.976,219.685,293.812,219.685,296.321,219.685z"
				/>
			<path fill-rule="evenodd" clip-rule="evenodd" fill="#FFFFFF" d="M157.586,244.099c-11.866,0-22.969,0-34.076-0.001
				c-5.136,0-10.287-0.241-15.406,0.071c-4.9,0.299-6.612-1.47-6.559-6.468c0.22-20.716,0.092-41.438,0.092-62.154
				c0-6.85,0.091-13.7-0.034-20.548c-0.065-3.683,1.351-5.326,5.16-5.172c4.789,0.19,9.598,0.241,14.378-0.015
				c4.149-0.221,5.316,1.594,5.294,5.47c-0.118,19.178-0.052,38.354-0.051,57.532c0,2.023,0,4.043,0,6.548
				c2.302,0.106,4.109,0.26,5.918,0.263c14.725,0.02,29.454,0.116,44.175-0.058c3.88-0.046,5.583,1.02,5.577,5.16
				c-0.052,26.883,0.18,53.766,0.054,80.647c-0.047,9.924-7.792,15.793-16.264,12.931c-5.408-1.83-8.231-6.022-8.252-12.763
				c-0.052-18.32-0.009-36.642-0.006-54.964C157.589,248.719,157.586,246.863,157.586,244.099z"/>
			<path fill-rule="evenodd" clip-rule="evenodd" fill="#FFFFFF" d="M270.121,192.305c0,5.251,0,10.469,0,16.374
				c-7.311,0-14.441,0-21.575,0c-6.844,0-13.699,0.234-20.529-0.087c-4.14-0.196-5.197,1.254-5.183,5.252
				c0.142,32.853,0.08,65.708,0.08,98.561c0,2.045,0,4.087,0,6.522c-6.69,0-13.06,0-20.042,0c0-2.168,0-4.17,0-6.172
				c0-27.721,0.051-55.445-0.036-83.165c-0.021-6.772-0.492-13.542-0.754-20.313c-6.798-0.199-13.592-0.493-20.393-0.574
				c-8.369-0.1-16.742-0.024-25.495-0.024c0-5.533,0-10.744,0-16.374C194.011,192.305,231.887,192.305,270.121,192.305z"/>
			<path fill-rule="evenodd" clip-rule="evenodd" fill="#FFFFFF" d="M192.241,186.367c0-3.904,0.471-7.868-0.146-11.659
				c-0.525-3.228,2.879-9.264-2.412-9.177c-4.744,0.076-1.714,6.106-2.2,9.418c-0.532,3.651-0.119,7.44-0.119,11.516
				c-5.252,0-9.915,0-14.851,0c0-9.746-0.902-19.377,0.261-28.753c1.118-9.026,8.391-14.261,16.895-14.714
				c16.531-0.879,33.193-1.183,49.693-0.08c12.64,0.845,19.021,9.676,19.055,22.474c0.016,6.965,0.004,13.927,0.004,21.153
				c-5.252,0-9.815,0-15.31,0c0-5.882,0.149-11.793-0.107-17.684c-0.061-1.422-1.463-2.785-2.248-4.175
				c-0.902,1.44-2.503,2.843-2.584,4.328c-0.309,5.617-0.126,11.262-0.126,17.351C222.804,186.367,207.873,186.367,192.241,186.367z
				"/>
			<path fill-rule="evenodd" clip-rule="evenodd" fill="#FFFFFF" d="M233.12,119.985c-0.027,10.123-7.791,17.853-17.924,17.852
				c-9.98-0.004-18.099-7.969-18.167-17.827c-0.067-9.739,8.745-18.51,18.407-18.32C225.35,101.884,233.145,109.952,233.12,119.985z
				"/>
			<path fill-rule="evenodd" clip-rule="evenodd" fill="#FFFFFF" d="M114.152,140.509c-9.685,0.02-18.008-8.384-17.884-18.057
				c0.123-9.658,8.089-17.521,17.801-17.572c9.884-0.055,18.123,8.227,17.917,18C131.784,132.44,123.638,140.489,114.152,140.509z"
				/>
			<path fill-rule="evenodd" clip-rule="evenodd" fill="#FFFFFF" d="M308.842,140.579c-9.835,0.096-18.138-8.054-18.136-17.796
				c0.005-9.619,7.94-17.548,17.683-17.671c10.058-0.127,18.039,7.726,18.011,17.726
				C326.376,132.44,318.414,140.485,308.842,140.579z"/>
		</g>
	</g>
</g>
</svg>
