<?xml version="1.0" encoding="utf-8"?>
<!-- Generator: Adobe Illustrator 17.0.0, SVG Export Plug-In . SVG Version: 6.00 Build 0)  -->
<!DOCTYPE svg PUBLIC "-//W3C//DTD SVG 1.1//EN" "http://www.w3.org/Graphics/SVG/1.1/DTD/svg11.dtd">
<svg version="1.1" id="Layer_1" xmlns="http://www.w3.org/2000/svg" xmlns:xlink="http://www.w3.org/1999/xlink" x="0px" y="0px"
	 width="425.2px" height="425.2px" viewBox="0 0 425.2 425.2" enable-background="new 0 0 425.2 425.2" xml:space="preserve">
<g>
	<path fill="#FFFFFF" d="M212.752,420.557c-115.356,0-209.205-93.849-209.205-209.205S97.396,2.147,212.752,2.147
		s209.205,93.849,209.205,209.205S328.108,420.557,212.752,420.557z M212.752,16.002c-107.717,0-195.35,87.633-195.35,195.35
		s87.633,195.35,195.35,195.35s195.35-87.633,195.35-195.35S320.469,16.002,212.752,16.002z"/>
	<g>
		<path fill-rule="evenodd" clip-rule="evenodd" fill="#FFFFFF" d="M125.556,320.511c-1.06-1.936-2.858-4.029-3.407-6.41
			c-6.592-28.529-13.011-57.103-19.456-85.67c-6.402-28.375-12.579-56.804-19.331-85.097c-1.479-6.194,1.228-7.497,5.993-8.556
			c29.728-6.602,59.439-13.282,89.148-19.961c8.321-1.874,16.67-3.67,24.898-5.895c1.855-0.498,4.045-2.337,4.723-4.091
			c1.507-3.882,3.727-4.29,7.297-3.264c41.011,11.762,82.035,23.482,123.089,35.091c4.485,1.268,5.846,3.139,4.472,7.935
			c-15.758,54.993-31.305,110.044-46.941,165.067c-2.617,9.201-2.674,9.113-12.038,6.423c-19.194-5.518-38.39-11.037-57.649-16.324
			c-2.666-0.732-5.808-0.738-8.523-0.134c-28.958,6.435-57.873,13.065-86.801,19.64
			C129.708,319.565,128.389,319.866,125.556,320.511z M90.798,142.238c12.86,56.869,25.609,113.255,38.398,169.81
			c41.782-9.457,82.546-18.686,123.693-28.003c-12.89-56.956-25.607-113.16-38.426-169.801
			C172.743,123.687,131.957,132.92,90.798,142.238z M308.571,196.571c-0.127,0.875-0.251,1.749-0.378,2.621
			c-11.762-1.201-22.916-5.531-34.364-8.291c-11.934-2.883-23.803-6.019-36.037-9.134c1.585,11.76,1.572,11.809,11.497,14.39
			c16.903,4.395,33.825,8.71,50.731,13.09c1.775,0.458,3.498,1.124,5.245,1.689c-0.056,0.688-0.114,1.375-0.169,2.063
			c-1.856-0.085-3.796,0.157-5.556-0.294c-16.902-4.36-33.771-8.85-50.655-13.269c-2.325-0.608-4.688-1.069-7.278-1.649
			c1.15,10.718,1.124,10.818,10.225,13.24c14.621,3.887,29.289,7.604,43.92,11.458c2.019,0.531,3.943,1.42,5.911,2.145
			c-0.251,0.862-0.503,1.724-0.753,2.586c-18.561-4.719-37.123-9.438-55.986-14.231c1.34,11.421,1.337,11.433,10.972,14.007
			c12.742,3.403,25.498,6.762,38.227,10.215c1.39,0.374,2.651,1.231,3.97,1.863c-0.25,0.735-0.498,1.47-0.749,2.208
			c-16.095-4.093-32.187-8.187-48.503-12.34c-0.241,7.018,1.692,10.86,8.853,12.19c10.655,1.981,21.072,5.252,31.577,8.017
			c1.906,0.503,3.753,1.216,5.626,1.834c-0.197,0.787-0.392,1.575-0.589,2.362c-14.288-1.913-27.92-7.257-42.104-9.851
			c-0.316,9.741,0.769,11.271,9.358,13.486c8.264,2.135,16.529,4.253,24.77,6.465c1.646,0.441,3.185,1.276,4.775,1.928
			c-0.218,0.792-0.432,1.59-0.648,2.384c-11.635-2.825-23.268-5.648-34.616-8.403c-1.016,9.031,3.417,12.218,11.074,13.483
			c7.069,1.171,13.922,3.663,20.868,5.571c-0.156,0.742-0.31,1.487-0.468,2.232c-9.658,0.055-18.588-5.003-28.22-5.842
			c0.573,10.843,0.882,11.209,10.038,13.541c4.945,1.261,9.866,2.626,14.799,3.947c-0.111,0.638-0.223,1.28-0.335,1.918
			c-4.65,2.158-8.864-1.669-13.334-2.018c-5.077-0.398-10.214-1.305-15.227-0.872c-4.911,0.423-9.698,2.252-14.539,3.463
			c-0.055,0.394-0.108,0.787-0.16,1.181c15.892,4.544,31.783,9.094,48.038,13.743c15.798-55.588,31.472-110.729,47.24-166.208
			c-38.238-10.873-75.803-21.551-114.099-32.443c1.9,8.685,3.448,16.436,5.394,24.085c0.386,1.527,2.089,3.279,3.568,3.765
			c0.93,0.304,2.897-1.3,3.829-2.494c2.592-3.321,4.886-6.874,8.321-11.809c0.304,4.681,0.979,7.746,0.595,10.673
			c-0.807,6.151,2.062,8.725,7.69,9.704c3.034,0.523,5.941,1.789,10.122,3.104c-4.997,1.856-8.539,3.513-12.263,4.469
			c-4.326,1.111-5.272,3.563-4.754,7.676c0.455,3.598,0.093,7.298,0.093,12.108c-3.964-4.868-7.101-8.717-10.235-12.567
			c-0.308,4.756,0.85,8.967,1.38,13.257c0.464,3.727,2.364,5.257,5.826,6.049c7.568,1.734,15.064,3.772,22.576,5.73
			C278.638,188.703,293.602,192.644,308.571,196.571z"/>
		<path fill-rule="evenodd" clip-rule="evenodd" fill="#FFFFFF" d="M118.751,188.872c0.338-4.146,0.545-8.307,1.06-12.432
			c0.367-2.955-0.528-4.624-3.429-5.708c-3.888-1.45-7.591-3.396-12.896-5.827c5.462-1.38,9.262-2.636,13.16-3.241
			c3.266-0.508,4.68-1.821,4.8-5.204c0.15-4.195,0.845-8.374,1.506-14.383c2.968,4.828,5.294,8.209,7.186,11.814
			c1.575,2.997,3.27,4.325,6.871,3.201c4.016-1.251,8.254-1.799,13.877-2.962c-3.93,4.524-7.149,7.82-9.81,11.523
			c-0.925,1.281-1.172,3.892-0.504,5.327c1.91,4.121,4.445,7.945,7.564,13.314c-5.541-2.332-9.683-3.832-13.588-5.802
			c-2.825-1.427-4.515-0.859-6.384,1.537c-2.56,3.286-5.505,6.268-8.283,9.378C119.505,189.226,119.128,189.049,118.751,188.872z"/>
		<path fill-rule="evenodd" clip-rule="evenodd" fill="#FFFFFF" d="M220.604,190.412c-1.617,0.827-3.147,2.001-4.864,2.437
			c-21.986,5.561-44,11.017-66.005,16.501c-8.651,2.16-17.286,4.378-25.961,6.445c-1.792,0.426-3.721,0.294-5.587,0.419
			c-0.117-0.777-0.232-1.557-0.349-2.337c33.827-8.496,67.653-16.996,101.479-25.495
			C219.746,189.059,220.175,189.739,220.604,190.412z"/>
		<path fill-rule="evenodd" clip-rule="evenodd" fill="#FFFFFF" d="M238.252,256.265c-0.808,2.302-0.918,3.488-1.303,3.585
			c-33.249,8.463-66.518,16.852-99.806,25.151c-0.573,0.142-1.426-0.845-2.243-2.87
			C168.969,273.606,203.041,265.077,238.252,256.265z"/>
		<path fill-rule="evenodd" clip-rule="evenodd" fill="#FFFFFF" d="M216.859,177.606c-33.977,8.456-67.955,16.912-101.932,25.368
			c-0.271-1.051-0.543-2.108-0.815-3.159c33.333-8.406,66.664-16.822,100.022-25.138c0.857-0.214,2,0.708,3.008,1.101
			C217.048,176.385,216.954,176.996,216.859,177.606z"/>
		<path fill-rule="evenodd" clip-rule="evenodd" fill="#FFFFFF" d="M224.137,205.206c-34.085,8.533-68.17,17.069-102.256,25.602
			c2.177-4.824,97.114-28.791,101.827-27.381C223.85,204.02,223.992,204.613,224.137,205.206z"/>
		<path fill-rule="evenodd" clip-rule="evenodd" fill="#FFFFFF" d="M230.473,229.911c-1.872,3.401-96.103,27.705-102.087,26.324
			C130.792,253.236,223.886,229.228,230.473,229.911z"/>
		<path fill-rule="evenodd" clip-rule="evenodd" fill="#FFFFFF" d="M241.417,274.019c-34.083,8.533-68.165,17.066-102.245,25.602
			c-0.241-0.857-0.478-1.719-0.715-2.578c16.548-5.922,33.953-8.979,50.92-13.461c17.032-4.5,34.176-8.575,51.272-12.836
			C240.905,271.834,241.162,272.928,241.417,274.019z"/>
		<path fill-rule="evenodd" clip-rule="evenodd" fill="#FFFFFF" d="M124.864,242.024c1.353-0.493,2.678-1.106,4.068-1.455
			c31.185-7.835,62.375-15.659,93.585-23.384c1.419-0.349,3.065,0.219,4.604,0.359c-1.286,1.044-2.422,2.676-3.877,3.045
			c-31.168,7.908-62.365,15.696-93.577,23.434c-1.431,0.351-3.026,0.045-4.544,0.045
			C125.038,243.385,124.95,242.702,124.864,242.024z"/>
		<path fill-rule="evenodd" clip-rule="evenodd" fill="#FFFFFF" d="M234.104,245.034c-33.634,10.11-67.794,18.332-103.121,27.037
			C133.688,267.626,225.989,243.512,234.104,245.034z"/>
	</g>
</g>
</svg>
