<?xml version="1.0" encoding="utf-8"?>
<!-- Generator: Adobe Illustrator 17.0.0, SVG Export Plug-In . SVG Version: 6.00 Build 0)  -->
<!DOCTYPE svg PUBLIC "-//W3C//DTD SVG 1.1//EN" "http://www.w3.org/Graphics/SVG/1.1/DTD/svg11.dtd">
<svg version="1.1" id="Layer_1" xmlns="http://www.w3.org/2000/svg" xmlns:xlink="http://www.w3.org/1999/xlink" x="0px" y="0px"
	 width="425.2px" height="425.2px" viewBox="0 0 425.2 425.2" enable-background="new 0 0 425.2 425.2" xml:space="preserve">
<g>
	<path fill="#FFFFFF" d="M800.614,71.783h-31.641c-1.43,0-2.589,1.159-2.589,2.589v2.316l-2.647,0
		c-0.239-0.01-1.452,0.02-2.374,0.927c-0.415,0.408-0.909,1.143-0.908,2.33v2.941c-0.013,0.331,0.012,1.398,0.801,2.247
		c0.396,0.426,1.125,0.933,2.344,0.933h2.783v1.372l-2.647,0c-0.239-0.006-1.452,0.021-2.374,0.927
		c-0.415,0.408-0.909,1.143-0.908,2.33v2.941c-0.013,0.331,0.012,1.398,0.801,2.247c0.397,0.426,1.125,0.933,2.344,0.933h2.783
		v1.098l-2.647,0c-0.239-0.007-1.452,0.02-2.374,0.927c-0.415,0.408-0.909,1.143-0.908,2.33v2.941
		c-0.013,0.331,0.012,1.398,0.801,2.247c0.397,0.426,1.125,0.933,2.344,0.933h2.783v5.301c0,1.43,1.159,2.589,2.589,2.589h31.641
		c1.43,0,2.589-1.159,2.589-2.589V74.372C803.203,72.942,802.044,71.783,800.614,71.783z M766.384,104.555h-2.783
		c-0.23,0-0.326-0.047-0.338-0.059c-0.036-0.036-0.071-0.18-0.071-0.248l0.004-3.076c0-0.236-0.001-0.504,0.517-0.517h2.672V104.555
		z M766.384,94.078h-2.783c-0.23,0-0.326-0.047-0.338-0.059c-0.036-0.036-0.071-0.18-0.071-0.248l0.004-3.076
		c0-0.236-0.001-0.504,0.517-0.517h2.672V94.078z M766.384,83.327h-2.783c-0.23,0-0.326-0.048-0.338-0.059
		c-0.036-0.036-0.071-0.18-0.071-0.247l0.004-3.076c0-0.236-0.001-0.504,0.517-0.517h2.672V83.327z M795.228,90.342h-21.75
		c-0.598,0-1.083-0.485-1.083-1.083c0-0.598,0.485-1.083,1.083-1.083h21.75c0.598,0,1.083,0.485,1.083,1.083
		C796.312,89.857,795.827,90.342,795.228,90.342z M795.228,82.196h-21.75c-0.598,0-1.083-0.485-1.083-1.083s0.485-1.083,1.083-1.083
		h21.75c0.598,0,1.083,0.485,1.083,1.083S795.827,82.196,795.228,82.196z"/>
	<path fill="#FFFFFF" d="M781.828,133.74c-22.197,0-40.256-18.059-40.256-40.256s18.059-40.256,40.256-40.256
		c22.197,0,40.256,18.059,40.256,40.256S804.025,133.74,781.828,133.74z M781.828,55.894c-20.727,0-37.59,16.863-37.59,37.59
		s16.863,37.59,37.59,37.59c20.727,0,37.59-16.863,37.59-37.59S802.555,55.894,781.828,55.894z"/>
</g>
<g>
	<path fill="#FFFFFF" d="M794.651,272.038h-12.202c-1.326,0-2.402,1.054-2.402,2.354v22.199c0,1.3,1.075,2.354,2.402,2.354h17.157
		c1.326,0,2.402-1.054,2.402-2.354v-16.202L794.651,272.038z M800.445,281.827h-8.227V273.6h0.831v7.397h7.396V281.827z"/>
	<path fill="#FFFFFF" d="M778.387,274.392c0-2.214,1.823-4.015,4.063-4.015h5.042v-2.329l-7.356-8.351h-12.202
		c-1.326,0-2.402,1.054-2.402,2.354v22.199c0,1.3,1.075,2.354,2.402,2.354h10.454V274.392z M777.702,261.259h0.831v7.397h7.396
		v0.831h-8.227V261.259z"/>
</g>
<g>
	<g>
		<path fill-rule="evenodd" clip-rule="evenodd" fill="#FFFFFF" d="M253.986,264.121c-3.006,0.147-6.069-0.019-9.007,0.508
			c-4.768,0.848-8.072,3.735-8.87,8.641c-0.471,2.894-1.9,3.421-4.488,3.421c-39.473-0.063-78.945,0.028-118.416-0.093
			c-10.845-0.037-16.687-6.177-16.692-16.885c-0.02-41.852-0.018-83.708-0.001-125.56c0.003-10.845,5.731-17.039,16.488-17.055
			c61.592-0.1,123.181-0.096,184.772-0.002c10.489,0.016,16.516,5.816,16.554,15.921c0.132,35.387,0.051,70.778,0.039,106.165
			c0,0.659-0.158,1.319-0.244,2.006c-10.034-2.041-19.666-6.212-30.627-2.964c0-35.441,0-70.552,0-105.944
			c-56.463,0-112.372,0-168.732,0c0,42.914,0,85.831,0,129.34c2.072,0,4.054,0,6.034,0c42.707,0.002,85.412-0.009,128.117,0.042
			c1.857,0,3.714,0.559,5.573,0.855C254.319,263.052,254.153,263.585,253.986,264.121z"/>
		<path fill-rule="evenodd" clip-rule="evenodd" fill="#FFFFFF" d="M324.627,292.294c-8.186,4.106-16.666,8.37-25.17,12.588
			c-0.706,0.35-1.683,0.697-2.361,0.489c-11.809-3.612-24.285-5.325-34.988-12.113c-1.537-0.97-3.099-1.971-4.415-3.207
			c-3.791-3.561-7.542-7.173-11.136-10.929c-1.151-1.205-2.766-3.3-2.384-4.311c0.489-1.289,3.082-2.936,4.254-2.608
			c4.282,1.209,8.532,2.841,12.447,4.961c3.362,1.822,6.249,4.525,9.344,6.837c0.643-0.487,1.287-0.976,1.931-1.466
			c-1.02-3.032-1.674-6.257-3.124-9.067c-7.078-13.749-14.375-27.381-21.581-41.062c-1.644-3.12-4.382-6.863-0.198-9.37
			c4.152-2.491,6.377,1.601,8.3,4.546c5.186,7.939,10.225,15.979,15.362,24.037c7.388-5.972,7.388-5.972,14.165-3.313
			c3.449-3.631,7.344-5.218,12.01-1.655c0.654,0.499,1.914,0.398,2.864,0.298c6.88-0.75,9.951,0.862,13.283,6.802
			C319.799,265.477,324.074,277.898,324.627,292.294z"/>
		<path fill-rule="evenodd" clip-rule="evenodd" fill="#FFFFFF" d="M162.695,162.665c0,4.421-0.079,8.846,0.028,13.264
			c0.068,2.81-1.08,4.001-3.912,3.975c-8.331-0.074-16.669,0.121-24.991-0.186c-1.281-0.047-3.522-2.153-3.561-3.365
			c-0.303-9.174-0.098-18.363-0.209-27.544c-0.036-3.039,1.434-3.714,4.095-3.686c8.162,0.089,16.326,0.121,24.488-0.012
			c3.168-0.049,4.19,1.307,4.098,4.292C162.593,153.82,162.695,158.245,162.695,162.665z"/>
		<path fill-rule="evenodd" clip-rule="evenodd" fill="#FFFFFF" d="M182.549,203.485c-15.966,0-31.933-0.014-47.899,0.012
			c-3.224,0.005-6.562-0.051-6.559-4.381c0.001-4.213,3.281-4.586,6.522-4.588c31.763-0.007,63.526-0.009,95.289,0.007
			c3.204,0,6.531,0.298,6.56,4.549c0.029,4.351-3.302,4.414-6.524,4.409C214.143,203.473,198.346,203.485,182.549,203.485z"/>
		<path fill-rule="evenodd" clip-rule="evenodd" fill="#FFFFFF" d="M182.225,242.366c-15.803,0-31.606-0.005-47.41,0.005
			c-3.169,0-6.605,0.047-6.718-4.26c-0.119-4.595,3.485-4.803,6.83-4.805c31.607-0.028,63.215-0.028,94.819,0.005
			c3.127,0.005,6.556,0.14,6.723,4.404c0.169,4.306-3.029,4.661-6.324,4.658C214.172,242.356,198.2,242.366,182.225,242.366z"/>
		<path fill-rule="evenodd" clip-rule="evenodd" fill="#FFFFFF" d="M182.316,222.118c-15.479,0-30.959,0.012-46.438-0.016
			c-1.692-0.002-3.698,0.303-4.986-0.48c-1.322-0.802-2.603-2.741-2.66-4.227c-0.047-1.2,1.524-2.969,2.807-3.575
			c1.418-0.671,3.325-0.387,5.022-0.387c30.789-0.014,61.577-0.012,92.367-0.009c1.191,0,2.679-0.41,3.508,0.145
			c1.715,1.149,3.078,2.822,4.586,4.278c-1.569,1.408-2.927,3.337-4.765,4.078c-1.763,0.708-4.022,0.191-6.063,0.191
			C211.234,222.12,196.775,222.118,182.316,222.118z"/>
	</g>
	<path fill="#FFFFFF" d="M210.563,417.026c-113.735,0-206.265-92.53-206.265-206.265S96.829,4.496,210.563,4.496
		s206.265,92.53,206.265,206.265S324.298,417.026,210.563,417.026z M210.563,18.156c-106.203,0-192.605,86.402-192.605,192.605
		s86.402,192.605,192.605,192.605s192.605-86.402,192.605-192.605S316.766,18.156,210.563,18.156z"/>
</g>
</svg>
